<svg id="svg" version="1.1" xmlns="http://www.w3.org/2000/svg" xmlns:xlink="http://www.w3.org/1999/xlink" width="400" height="583.1578947368421" viewBox="0, 0, 400,583.1578947368421"><g id="svgg"><path id="path0" d="" stroke="none" fill="#000000" fill-rule="evenodd"></path><path id="path1" d="" stroke="none" fill="#333333" fill-rule="evenodd"></path><path id="path2" d="" stroke="none" fill="#555555" fill-rule="evenodd"></path><path id="path3" d="" stroke="none" fill="#6d6d6d" fill-rule="evenodd"></path><path id="path4" d="" stroke="none" fill="#000055" fill-rule="evenodd"></path><path id="path5" d="" stroke="none" fill="#24246d" fill-rule="evenodd"></path><path id="path6" d="" stroke="none" fill="#1c5555" fill-rule="evenodd"></path><path id="path7" d="" stroke="none" fill="#005555" fill-rule="evenodd"></path><path id="path8" d="" stroke="none" fill="#3b6262" fill-rule="evenodd"></path><path id="path9" d="" stroke="none" fill="#464674" fill-rule="evenodd"></path><path id="path10" d="" stroke="none" fill="#246d6d" fill-rule="evenodd"></path><path id="path11" d="" stroke="none" fill="#4b6969" fill-rule="evenodd"></path><path id="path12" d="" stroke="none" fill="#435e79" fill-rule="evenodd"></path><path id="path13" d="" stroke="none" fill="#555577" fill-rule="evenodd"></path><path id="path14" d="" stroke="none" fill="#333399" fill-rule="evenodd"></path><path id="path15" d="" stroke="none" fill="#556d6d" fill-rule="evenodd"></path><path id="path16" d="" stroke="none" fill="#4e647a" fill-rule="evenodd"></path><path id="path17" d="" stroke="none" fill="#5e5e79" fill-rule="evenodd"></path><path id="path18" d="M336.995 57.800 C 336.995 89.700,337.042 102.691,337.100 86.669 C 337.158 70.646,337.158 44.546,337.100 28.669 C 337.042 12.791,336.995 25.900,336.995 57.800 M336.995 523.400 C 336.995 555.520,337.042 568.719,337.100 552.731 C 337.158 536.744,337.158 510.464,337.100 494.331 C 337.042 478.199,336.995 491.280,336.995 523.400 " stroke="none" fill="#467474" fill-rule="evenodd"></path><path id="path19" d="" stroke="none" fill="#3b6289" fill-rule="evenodd"></path><path id="path20" d="" stroke="none" fill="#5a6b7b" fill-rule="evenodd"></path><path id="path21" d="" stroke="none" fill="#55687b" fill-rule="evenodd"></path><path id="path22" d="" stroke="none" fill="#4f6184" fill-rule="evenodd"></path><path id="path23" d="" stroke="none" fill="#64647a" fill-rule="evenodd"></path><path id="path24" d="" stroke="none" fill="#616184" fill-rule="evenodd"></path><path id="path25" d="" stroke="none" fill="#557777" fill-rule="evenodd"></path><path id="path26" d="" stroke="none" fill="#4e7a7a" fill-rule="evenodd"></path><path id="path27" d="" stroke="none" fill="#55558e" fill-rule="evenodd"></path><path id="path28" d="M329.700 116.676 C 330.085 116.776,330.715 116.776,331.100 116.676 C 331.485 116.575,331.170 116.493,330.400 116.493 C 329.630 116.493,329.315 116.575,329.700 116.676 " stroke="none" fill="#4b6987" fill-rule="evenodd"></path><path id="path29" d="" stroke="none" fill="#5e7979" fill-rule="evenodd"></path><path id="path30" d="" stroke="none" fill="#5b7380" fill-rule="evenodd"></path><path id="path31" d="" stroke="none" fill="#557b7b" fill-rule="evenodd"></path><path id="path32" d="" stroke="none" fill="#577280" fill-rule="evenodd"></path><path id="path33" d="" stroke="none" fill="#586887" fill-rule="evenodd"></path><path id="path34" d="M136.934 268.400 C 136.934 270.050,137.005 270.725,137.091 269.900 C 137.178 269.075,137.178 267.725,137.091 266.900 C 137.005 266.075,136.934 266.750,136.934 268.400 " stroke="none" fill="#556d86" fill-rule="evenodd"></path><path id="path35" d="" stroke="none" fill="#4f7284" fill-rule="evenodd"></path><path id="path36" d="" stroke="none" fill="#647a7a" fill-rule="evenodd"></path><path id="path37" d="" stroke="none" fill="#676d82" fill-rule="evenodd"></path><path id="path38" d="" stroke="none" fill="#657182" fill-rule="evenodd"></path><path id="path39" d="" stroke="none" fill="#627080" fill-rule="evenodd"></path><path id="path40" d="" stroke="none" fill="#5a7b7b" fill-rule="evenodd"></path><path id="path41" d="" stroke="none" fill="#626289" fill-rule="evenodd"></path><path id="path42" d="" stroke="none" fill="#606c86" fill-rule="evenodd"></path><path id="path43" d="" stroke="none" fill="#5c7782" fill-rule="evenodd"></path><path id="path44" d="" stroke="none" fill="#5c7085" fill-rule="evenodd"></path><path id="path45" d="" stroke="none" fill="#5a7882" fill-rule="evenodd"></path><path id="path46" d="" stroke="none" fill="#5c6a87" fill-rule="evenodd"></path><path id="path47" d="" stroke="none" fill="#5a6b8c" fill-rule="evenodd"></path><path id="path48" d="" stroke="none" fill="#55688e" fill-rule="evenodd"></path><path id="path49" d="" stroke="none" fill="#555599" fill-rule="evenodd"></path><path id="path50" d="" stroke="none" fill="#677782" fill-rule="evenodd"></path><path id="path51" d="" stroke="none" fill="#696987" fill-rule="evenodd"></path><path id="path52" d="" stroke="none" fill="#647882" fill-rule="evenodd"></path><path id="path53" d="" stroke="none" fill="#617284" fill-rule="evenodd"></path><path id="path54" d="" stroke="none" fill="#647087" fill-rule="evenodd"></path><path id="path55" d="" stroke="none" fill="#617284" fill-rule="evenodd"></path><path id="path56" d="" stroke="none" fill="#617586" fill-rule="evenodd"></path><path id="path57" d="" stroke="none" fill="#627587" fill-rule="evenodd"></path><path id="path58" d="" stroke="none" fill="#617186" fill-rule="evenodd"></path><path id="path59" d="" stroke="none" fill="#627187" fill-rule="evenodd"></path><path id="path60" d="" stroke="none" fill="#607784" fill-rule="evenodd"></path><path id="path61" d="" stroke="none" fill="#607188" fill-rule="evenodd"></path><path id="path62" d="" stroke="none" fill="#607587" fill-rule="evenodd"></path><path id="path63" d="" stroke="none" fill="#5d7784" fill-rule="evenodd"></path><path id="path64" d="" stroke="none" fill="#617288" fill-rule="evenodd"></path><path id="path65" d="" stroke="none" fill="#607686" fill-rule="evenodd"></path><path id="path66" d="" stroke="none" fill="#607587" fill-rule="evenodd"></path><path id="path67" d="" stroke="none" fill="#607488" fill-rule="evenodd"></path><path id="path68" d="" stroke="none" fill="#646490" fill-rule="evenodd"></path><path id="path69" d="" stroke="none" fill="#60718b" fill-rule="evenodd"></path><path id="path70" d="" stroke="none" fill="#5c7887" fill-rule="evenodd"></path><path id="path71" d="" stroke="none" fill="#5e7289" fill-rule="evenodd"></path><path id="path72" d="" stroke="none" fill="#5e728a" fill-rule="evenodd"></path><path id="path73" d="" stroke="none" fill="#5b7887" fill-rule="evenodd"></path><path id="path74" d="" stroke="none" fill="#5b7689" fill-rule="evenodd"></path><path id="path75" d="" stroke="none" fill="#5c758a" fill-rule="evenodd"></path><path id="path76" d="" stroke="none" fill="#587887" fill-rule="evenodd"></path><path id="path77" d="" stroke="none" fill="#5a6e8c" fill-rule="evenodd"></path><path id="path78" d="" stroke="none" fill="#5e5e94" fill-rule="evenodd"></path><path id="path79" d="" stroke="none" fill="#587689" fill-rule="evenodd"></path><path id="path80" d="" stroke="none" fill="#57728d" fill-rule="evenodd"></path><path id="path81" d="" stroke="none" fill="#6c7188" fill-rule="evenodd"></path><path id="path82" d="M336.595 57.800 C 336.595 89.700,336.642 102.691,336.700 86.669 C 336.758 70.646,336.758 44.546,336.700 28.669 C 336.642 12.791,336.595 25.900,336.595 57.800 M336.595 523.400 C 336.595 555.520,336.642 568.719,336.700 552.731 C 336.758 536.744,336.758 510.464,336.700 494.331 C 336.642 478.199,336.595 491.280,336.595 523.400 " stroke="none" fill="#687887" fill-rule="evenodd"></path><path id="path83" d="" stroke="none" fill="#657d82" fill-rule="evenodd"></path><path id="path84" d="" stroke="none" fill="#677386" fill-rule="evenodd"></path><path id="path85" d="" stroke="none" fill="#667784" fill-rule="evenodd"></path><path id="path86" d="" stroke="none" fill="#667488" fill-rule="evenodd"></path><path id="path87" d="" stroke="none" fill="#657887" fill-rule="evenodd"></path><path id="path88" d="M135.346 291.800 C 135.347 294.000,135.414 294.849,135.495 293.687 C 135.576 292.524,135.576 290.724,135.493 289.687 C 135.411 288.649,135.345 289.600,135.346 291.800 " stroke="none" fill="#667289" fill-rule="evenodd"></path><path id="path89" d="" stroke="none" fill="#657689" fill-rule="evenodd"></path><path id="path90" d="" stroke="none" fill="#647887" fill-rule="evenodd"></path><path id="path91" d="" stroke="none" fill="#68688e" fill-rule="evenodd"></path><path id="path92" d="" stroke="none" fill="#647686" fill-rule="evenodd"></path><path id="path93" d="" stroke="none" fill="#657689" fill-rule="evenodd"></path><path id="path94" d="" stroke="none" fill="#657988" fill-rule="evenodd"></path><path id="path95" d="" stroke="none" fill="#637689" fill-rule="evenodd"></path><path id="path96" d="M136.534 268.400 C 136.534 270.050,136.605 270.725,136.691 269.900 C 136.778 269.075,136.778 267.725,136.691 266.900 C 136.605 266.075,136.534 266.750,136.534 268.400 " stroke="none" fill="#64758a" fill-rule="evenodd"></path><path id="path97" d="" stroke="none" fill="#637989" fill-rule="evenodd"></path><path id="path98" d="" stroke="none" fill="#647689" fill-rule="evenodd"></path><path id="path99" d="" stroke="none" fill="#637488" fill-rule="evenodd"></path><path id="path100" d="" stroke="none" fill="#64728a" fill-rule="evenodd"></path><path id="path101" d="" stroke="none" fill="#65748b" fill-rule="evenodd"></path><path id="path102" d="" stroke="none" fill="#676d8d" fill-rule="evenodd"></path><path id="path103" d="" stroke="none" fill="#637389" fill-rule="evenodd"></path><path id="path104" d="" stroke="none" fill="#647689" fill-rule="evenodd"></path><path id="path105" d="" stroke="none" fill="#637a88" fill-rule="evenodd"></path><path id="path106" d="" stroke="none" fill="#65738c" fill-rule="evenodd"></path><path id="path107" d="" stroke="none" fill="#637788" fill-rule="evenodd"></path><path id="path108" d="" stroke="none" fill="#62788a" fill-rule="evenodd"></path><path id="path109" d="" stroke="none" fill="#63778b" fill-rule="evenodd"></path><path id="path110" d="" stroke="none" fill="#62768b" fill-rule="evenodd"></path><path id="path111" d="" stroke="none" fill="#607986" fill-rule="evenodd"></path><path id="path112" d="" stroke="none" fill="#65728d" fill-rule="evenodd"></path><path id="path113" d="" stroke="none" fill="#627689" fill-rule="evenodd"></path><path id="path114" d="" stroke="none" fill="#617b88" fill-rule="evenodd"></path><path id="path115" d="" stroke="none" fill="#64758c" fill-rule="evenodd"></path><path id="path116" d="" stroke="none" fill="#62778b" fill-rule="evenodd"></path><path id="path117" d="" stroke="none" fill="#627889" fill-rule="evenodd"></path><path id="path118" d="" stroke="none" fill="#63768b" fill-rule="evenodd"></path><path id="path119" d="" stroke="none" fill="#62758a" fill-rule="evenodd"></path><path id="path120" d="" stroke="none" fill="#64728d" fill-rule="evenodd"></path><path id="path121" d="" stroke="none" fill="#62708e" fill-rule="evenodd"></path><path id="path122" d="" stroke="none" fill="#60778b" fill-rule="evenodd"></path><path id="path123" d="" stroke="none" fill="#62758d" fill-rule="evenodd"></path><path id="path124" d="" stroke="none" fill="#607689" fill-rule="evenodd"></path><path id="path125" d="" stroke="none" fill="#60788a" fill-rule="evenodd"></path><path id="path126" d="" stroke="none" fill="#5e7d87" fill-rule="evenodd"></path><path id="path127" d="" stroke="none" fill="#607989" fill-rule="evenodd"></path><path id="path128" d="" stroke="none" fill="#5f7689" fill-rule="evenodd"></path><path id="path129" d="" stroke="none" fill="#60758d" fill-rule="evenodd"></path><path id="path130" d="" stroke="none" fill="#5e748b" fill-rule="evenodd"></path><path id="path131" d="" stroke="none" fill="#60758e" fill-rule="evenodd"></path><path id="path132" d="" stroke="none" fill="#60768c" fill-rule="evenodd"></path><path id="path133" d="" stroke="none" fill="#5b8086" fill-rule="evenodd"></path><path id="path134" d="" stroke="none" fill="#5d778c" fill-rule="evenodd"></path><path id="path135" d="" stroke="none" fill="#5e738c" fill-rule="evenodd"></path><path id="path136" d="" stroke="none" fill="#5c778d" fill-rule="evenodd"></path><path id="path137" d="" stroke="none" fill="#5a7b8c" fill-rule="evenodd"></path><path id="path138" d="" stroke="none" fill="#5a788c" fill-rule="evenodd"></path><path id="path139" d="" stroke="none" fill="#557b8e" fill-rule="evenodd"></path><path id="path140" d="" stroke="none" fill="#6a7887" fill-rule="evenodd"></path><path id="path141" d="" stroke="none" fill="#678086" fill-rule="evenodd"></path><path id="path142" d="" stroke="none" fill="#667a88" fill-rule="evenodd"></path><path id="path143" d="" stroke="none" fill="#68778b" fill-rule="evenodd"></path><path id="path144" d="" stroke="none" fill="#687b8a" fill-rule="evenodd"></path><path id="path145" d="" stroke="none" fill="#677889" fill-rule="evenodd"></path><path id="path146" d="" stroke="none" fill="#69798b" fill-rule="evenodd"></path><path id="path147" d="" stroke="none" fill="#667a89" fill-rule="evenodd"></path><path id="path148" d="M136.137 268.200 C 136.139 269.960,136.209 270.630,136.293 269.689 C 136.378 268.749,136.377 267.309,136.291 266.489 C 136.205 265.670,136.136 266.440,136.137 268.200 " stroke="none" fill="#65788a" fill-rule="evenodd"></path><path id="path149" d="" stroke="none" fill="#66768b" fill-rule="evenodd"></path><path id="path150" d="" stroke="none" fill="#67778b" fill-rule="evenodd"></path><path id="path151" d="" stroke="none" fill="#667a89" fill-rule="evenodd"></path><path id="path152" d="" stroke="none" fill="#66778a" fill-rule="evenodd"></path><path id="path153" d="" stroke="none" fill="#66768b" fill-rule="evenodd"></path><path id="path154" d="" stroke="none" fill="#69758e" fill-rule="evenodd"></path><path id="path155" d="M37.200 425.213 C 37.200 425.426,37.374 425.600,37.587 425.600 C 37.801 425.600,37.878 425.852,37.760 426.160 C 37.642 426.467,37.715 426.824,37.923 426.952 C 38.130 427.080,38.300 426.749,38.300 426.216 C 38.300 425.683,38.053 425.152,37.750 425.036 C 37.448 424.920,37.200 424.999,37.200 425.213 M321.907 464.690 C 322.626 464.779,323.706 464.777,324.307 464.686 C 324.908 464.595,324.320 464.522,323.000 464.524 C 321.680 464.526,321.188 464.601,321.907 464.690 M327.700 465.076 C 328.085 465.176,328.715 465.176,329.100 465.076 C 329.485 464.975,329.170 464.893,328.400 464.893 C 327.630 464.893,327.315 464.975,327.700 465.076 M311.057 581.507 C 310.953 581.676,311.617 581.757,312.534 581.686 C 315.225 581.479,315.553 581.296,313.324 581.246 C 312.182 581.221,311.162 581.338,311.057 581.507 M316.992 581.613 C 316.910 581.745,317.644 581.894,318.622 581.945 C 319.600 581.995,320.400 581.957,320.400 581.860 C 320.400 581.582,317.157 581.346,316.992 581.613 M331.400 581.611 L 328.200 581.876 331.690 581.884 C 333.610 581.888,335.084 581.736,334.967 581.546 C 334.849 581.356,334.718 581.233,334.676 581.273 C 334.634 581.314,333.160 581.466,331.400 581.611 " stroke="none" fill="#66788b" fill-rule="evenodd"></path><path id="path156" d="" stroke="none" fill="#667989" fill-rule="evenodd"></path><path id="path157" d="" stroke="none" fill="#69748f" fill-rule="evenodd"></path><path id="path158" d="" stroke="none" fill="#657989" fill-rule="evenodd"></path><path id="path159" d="" stroke="none" fill="#68758d" fill-rule="evenodd"></path><path id="path160" d="" stroke="none" fill="#647a8b" fill-rule="evenodd"></path><path id="path161" d="" stroke="none" fill="#64798a" fill-rule="evenodd"></path><path id="path162" d="" stroke="none" fill="#66758d" fill-rule="evenodd"></path><path id="path163" d="" stroke="none" fill="#64788a" fill-rule="evenodd"></path><path id="path164" d="" stroke="none" fill="#647a8a" fill-rule="evenodd"></path><path id="path165" d="" stroke="none" fill="#64788b" fill-rule="evenodd"></path><path id="path166" d="" stroke="none" fill="#65778b" fill-rule="evenodd"></path><path id="path167" d="" stroke="none" fill="#66748e" fill-rule="evenodd"></path><path id="path168" d="" stroke="none" fill="#657c8b" fill-rule="evenodd"></path><path id="path169" d="" stroke="none" fill="#67758e" fill-rule="evenodd"></path><path id="path170" d="" stroke="none" fill="#647989" fill-rule="evenodd"></path><path id="path171" d="" stroke="none" fill="#637b89" fill-rule="evenodd"></path><path id="path172" d="" stroke="none" fill="#637a8b" fill-rule="evenodd"></path><path id="path173" d="" stroke="none" fill="#627b8a" fill-rule="evenodd"></path><path id="path174" d="" stroke="none" fill="#64768c" fill-rule="evenodd"></path><path id="path175" d="M52.214 136.235 C 51.841 136.804,51.605 137.338,51.689 137.422 C 51.773 137.507,52.158 137.041,52.544 136.388 C 53.406 134.928,53.148 134.809,52.214 136.235 " stroke="none" fill="#65768d" fill-rule="evenodd"></path><path id="path176" d="" stroke="none" fill="#64768e" fill-rule="evenodd"></path><path id="path177" d="" stroke="none" fill="#65748e" fill-rule="evenodd"></path><path id="path178" d="" stroke="none" fill="#627b8b" fill-rule="evenodd"></path><path id="path179" d="" stroke="none" fill="#637d8b" fill-rule="evenodd"></path><path id="path180" d="" stroke="none" fill="#667291" fill-rule="evenodd"></path><path id="path181" d="" stroke="none" fill="#628089" fill-rule="evenodd"></path><path id="path182" d="" stroke="none" fill="#637b8b" fill-rule="evenodd"></path><path id="path183" d="" stroke="none" fill="#63748f" fill-rule="evenodd"></path><path id="path184" d="M327.700 464.676 C 328.085 464.776,328.715 464.776,329.100 464.676 C 329.485 464.575,329.170 464.493,328.400 464.493 C 327.630 464.493,327.315 464.575,327.700 464.676 M312.105 581.887 C 312.714 581.979,313.614 581.977,314.105 581.882 C 314.597 581.787,314.100 581.711,313.000 581.714 C 311.900 581.717,311.497 581.795,312.105 581.887 " stroke="none" fill="#63768e" fill-rule="evenodd"></path><path id="path185" d="" stroke="none" fill="#61778d" fill-rule="evenodd"></path><path id="path186" d="" stroke="none" fill="#617a8c" fill-rule="evenodd"></path><path id="path187" d="" stroke="none" fill="#62778d" fill-rule="evenodd"></path><path id="path188" d="" stroke="none" fill="#647591" fill-rule="evenodd"></path><path id="path189" d="" stroke="none" fill="#61758e" fill-rule="evenodd"></path><path id="path190" d="M134.946 291.800 C 134.947 294.000,135.014 294.849,135.095 293.687 C 135.176 292.524,135.176 290.724,135.093 289.687 C 135.011 288.649,134.945 289.600,134.946 291.800 " stroke="none" fill="#62768f" fill-rule="evenodd"></path><path id="path191" d="" stroke="none" fill="#5e7c8b" fill-rule="evenodd"></path><path id="path192" d="" stroke="none" fill="#607c8e" fill-rule="evenodd"></path><path id="path193" d="" stroke="none" fill="#627590" fill-rule="evenodd"></path><path id="path194" d="" stroke="none" fill="#607b8d" fill-rule="evenodd"></path><path id="path195" d="" stroke="none" fill="#5e7b8e" fill-rule="evenodd"></path><path id="path196" d="" stroke="none" fill="#60798f" fill-rule="evenodd"></path><path id="path197" d="" stroke="none" fill="#5e7a8c" fill-rule="evenodd"></path><path id="path198" d="" stroke="none" fill="#60768f" fill-rule="evenodd"></path><path id="path199" d="" stroke="none" fill="#6c7d88" fill-rule="evenodd"></path><path id="path200" d="" stroke="none" fill="#687d8b" fill-rule="evenodd"></path><path id="path201" d="" stroke="none" fill="#697b8b" fill-rule="evenodd"></path><path id="path202" d="" stroke="none" fill="#6c7193" fill-rule="evenodd"></path><path id="path203" d="" stroke="none" fill="#667f8c" fill-rule="evenodd"></path><path id="path204" d="" stroke="none" fill="#657e8c" fill-rule="evenodd"></path><path id="path205" d="M334.915 0.523 C 335.073 0.935,334.144 1.050,330.558 1.062 C 328.051 1.071,326.000 0.925,326.000 0.739 C 326.000 0.552,325.550 0.400,325.000 0.400 C 324.450 0.400,324.000 0.550,324.000 0.733 C 324.000 1.156,324.128 1.144,317.000 1.387 C 313.700 1.499,310.508 1.794,309.906 2.041 C 309.254 2.310,307.665 2.408,305.979 2.283 C 303.973 2.135,303.093 2.215,302.962 2.556 C 302.841 2.871,301.728 3.044,299.751 3.055 C 298.001 3.065,296.612 3.257,296.454 3.512 C 296.115 4.062,292.707 3.984,292.300 3.418 C 292.103 3.143,291.873 3.198,291.628 3.579 C 291.359 3.997,290.353 4.173,287.992 4.213 C 285.984 4.248,284.617 4.450,284.438 4.738 C 284.260 5.026,283.193 5.186,281.678 5.151 C 280.203 5.118,278.964 5.298,278.602 5.598 C 278.214 5.920,277.277 6.032,275.998 5.909 C 274.492 5.765,274.096 5.834,274.391 6.189 C 274.685 6.544,274.148 6.653,272.228 6.628 C 270.822 6.609,269.757 6.730,269.860 6.897 C 269.963 7.064,269.057 7.200,267.847 7.200 C 266.637 7.200,265.528 7.392,265.383 7.627 C 265.238 7.862,264.499 8.001,263.740 7.935 C 262.903 7.863,262.230 8.028,262.028 8.355 C 261.807 8.712,261.140 8.840,260.048 8.736 C 259.052 8.641,258.400 8.747,258.400 9.004 C 258.400 9.238,257.860 9.471,257.200 9.521 C 256.540 9.572,256.000 9.435,256.000 9.219 C 256.000 9.002,255.731 8.928,255.402 9.054 C 255.074 9.181,254.917 9.465,255.053 9.686 C 255.211 9.941,254.624 10.035,253.451 9.941 C 252.153 9.838,251.600 9.945,251.600 10.297 C 251.600 10.626,250.979 10.800,249.800 10.800 C 248.810 10.800,248.000 10.968,248.000 11.173 C 248.000 11.379,247.443 11.531,246.762 11.511 C 246.081 11.492,245.406 11.639,245.262 11.838 C 244.954 12.264,244.951 12.264,241.627 12.558 C 240.212 12.684,238.871 12.969,238.647 13.193 C 238.423 13.417,237.736 13.600,237.120 13.600 C 236.504 13.600,236.000 13.780,236.000 14.000 C 236.000 14.220,235.370 14.400,234.600 14.400 C 233.830 14.400,233.200 14.580,233.200 14.800 C 233.200 15.020,233.009 15.200,232.776 15.200 C 232.543 15.200,232.488 14.975,232.653 14.700 C 232.883 14.318,232.804 14.321,232.319 14.714 C 231.970 14.996,230.766 15.337,229.642 15.470 C 228.519 15.603,227.600 15.885,227.600 16.098 C 227.600 16.310,226.894 16.417,226.031 16.334 C 225.107 16.246,224.490 16.353,224.531 16.592 C 224.569 16.817,224.102 17.057,223.493 17.127 C 222.884 17.197,222.474 17.396,222.581 17.569 C 222.688 17.743,222.331 17.799,221.788 17.696 C 221.214 17.586,220.800 17.694,220.800 17.953 C 220.800 18.199,220.181 18.400,219.424 18.400 C 218.667 18.400,217.936 18.580,217.800 18.800 C 217.664 19.020,217.128 19.200,216.610 19.200 C 216.091 19.200,215.591 19.425,215.498 19.700 C 215.367 20.090,215.185 20.080,214.669 19.654 C 214.099 19.184,213.966 19.212,213.704 19.854 C 213.537 20.264,213.220 20.628,213.000 20.663 C 212.780 20.698,211.988 20.822,211.239 20.938 C 210.491 21.054,209.746 21.364,209.584 21.626 C 209.422 21.888,209.121 21.999,208.916 21.872 C 208.711 21.745,208.021 21.911,207.384 22.242 C 206.747 22.573,205.834 22.745,205.355 22.624 C 204.806 22.487,204.402 22.618,204.263 22.981 C 204.141 23.297,203.403 23.676,202.621 23.822 C 201.839 23.969,201.200 24.249,201.200 24.445 C 201.200 24.640,200.660 24.800,200.000 24.800 C 199.340 24.800,198.800 25.001,198.800 25.247 C 198.800 25.507,198.384 25.614,197.800 25.502 C 197.250 25.397,196.800 25.446,196.800 25.612 C 196.800 25.778,196.350 26.026,195.800 26.164 C 195.250 26.302,194.800 26.581,194.800 26.785 C 194.800 26.988,194.444 27.085,194.008 27.002 C 193.573 26.918,193.112 27.018,192.985 27.225 C 192.857 27.431,192.403 27.600,191.976 27.600 C 191.549 27.600,191.200 27.784,191.200 28.008 C 191.200 28.232,190.764 28.337,190.231 28.240 C 189.631 28.131,189.178 28.281,189.043 28.632 C 188.923 28.944,188.549 29.200,188.213 29.200 C 187.876 29.200,187.600 29.370,187.600 29.577 C 187.600 29.784,187.244 29.885,186.808 29.802 C 186.373 29.718,185.912 29.818,185.785 30.025 C 185.657 30.231,185.193 30.400,184.753 30.400 C 184.313 30.400,184.064 30.580,184.200 30.800 C 184.339 31.025,184.019 31.200,183.469 31.200 C 182.333 31.200,180.296 32.162,180.660 32.527 C 180.797 32.663,180.524 32.701,180.054 32.610 C 179.584 32.520,179.200 32.616,179.200 32.823 C 179.200 33.030,178.930 33.200,178.600 33.200 C 178.270 33.200,178.000 33.364,178.000 33.565 C 178.000 33.765,177.566 33.882,177.035 33.824 C 176.407 33.755,176.136 33.889,176.259 34.209 C 176.365 34.486,176.132 34.698,175.724 34.695 C 174.279 34.686,173.958 34.808,174.238 35.262 C 174.411 35.542,174.348 35.615,174.078 35.448 C 173.635 35.174,172.036 35.874,171.540 36.558 C 171.398 36.755,170.993 36.806,170.640 36.671 C 170.288 36.536,170.000 36.587,170.000 36.786 C 170.000 36.984,169.637 37.261,169.194 37.402 C 168.751 37.543,168.485 37.814,168.603 38.005 C 168.721 38.195,168.498 38.368,168.109 38.387 C 165.799 38.503,165.200 38.654,165.200 39.118 C 165.200 39.402,164.885 39.582,164.500 39.518 C 164.109 39.452,163.844 39.621,163.900 39.900 C 163.955 40.175,163.640 40.400,163.200 40.400 C 162.760 40.400,162.400 40.563,162.400 40.763 C 162.400 40.962,162.012 41.024,161.537 40.900 C 160.890 40.730,160.757 40.807,161.003 41.205 C 161.243 41.593,161.148 41.666,160.650 41.475 C 160.223 41.311,159.882 41.442,159.733 41.830 C 159.603 42.169,159.250 42.351,158.948 42.236 C 158.644 42.119,158.400 42.276,158.400 42.590 C 158.400 42.939,158.095 43.095,157.600 43.000 C 157.103 42.904,156.800 43.061,156.800 43.415 C 156.800 43.729,156.350 44.098,155.800 44.236 C 155.250 44.374,154.800 44.647,154.800 44.843 C 154.800 45.040,154.451 45.200,154.024 45.200 C 153.597 45.200,153.134 45.383,152.996 45.607 C 152.858 45.830,152.577 45.909,152.372 45.783 C 152.168 45.656,151.986 45.878,151.968 46.276 C 151.950 46.696,151.852 46.790,151.735 46.500 C 151.624 46.225,151.358 46.000,151.143 46.000 C 150.928 46.000,150.856 46.167,150.982 46.371 C 151.108 46.575,150.804 46.871,150.306 47.028 C 149.808 47.186,149.095 47.664,148.723 48.092 C 148.264 48.619,147.749 48.794,147.123 48.638 C 146.615 48.511,146.425 48.511,146.700 48.637 C 147.350 48.935,147.350 49.659,146.700 49.554 C 145.960 49.435,144.688 50.045,143.953 50.872 C 143.597 51.273,143.099 51.600,142.845 51.600 C 142.592 51.600,141.661 52.056,140.777 52.614 C 139.893 53.172,138.997 53.522,138.785 53.391 C 138.573 53.260,138.400 53.433,138.400 53.776 C 138.400 54.119,138.130 54.400,137.800 54.400 C 137.470 54.400,137.200 54.591,137.200 54.824 C 137.200 55.057,137.020 55.136,136.800 55.000 C 136.580 54.864,136.400 54.964,136.400 55.223 C 136.400 55.490,136.068 55.606,135.630 55.492 C 135.134 55.362,134.926 55.463,135.045 55.774 C 135.308 56.458,133.428 57.268,132.871 56.711 C 132.569 56.409,132.506 56.519,132.655 57.087 C 132.789 57.602,132.630 57.980,132.211 58.140 C 131.852 58.278,131.661 58.225,131.786 58.023 C 131.911 57.821,131.802 57.525,131.545 57.366 C 131.262 57.191,131.183 57.249,131.347 57.514 C 131.495 57.754,131.298 58.136,130.908 58.363 C 130.519 58.590,130.348 58.781,130.529 58.788 C 130.709 58.795,130.570 59.087,130.218 59.439 C 129.849 59.808,129.294 59.968,128.902 59.818 C 128.529 59.675,128.345 59.679,128.493 59.826 C 128.911 60.244,127.752 61.200,126.829 61.200 C 126.342 61.200,126.000 61.459,126.000 61.829 C 126.000 62.683,125.112 63.506,123.848 63.824 C 123.272 63.968,122.800 64.247,122.800 64.443 C 122.800 64.640,122.607 64.800,122.371 64.800 C 121.746 64.800,120.790 65.857,121.119 66.186 C 121.274 66.340,121.220 66.432,121.000 66.390 C 120.325 66.261,118.800 66.871,118.800 67.270 C 118.800 67.478,118.622 67.537,118.405 67.403 C 118.178 67.263,118.111 67.423,118.247 67.779 C 118.404 68.187,118.257 68.400,117.819 68.400 C 117.453 68.400,117.264 68.580,117.400 68.800 C 117.750 69.367,117.064 69.297,116.421 68.700 C 116.050 68.356,115.966 68.348,116.150 68.675 C 116.297 68.937,116.098 69.336,115.708 69.563 C 115.319 69.790,115.148 69.981,115.329 69.988 C 115.509 69.995,115.384 70.273,115.050 70.607 C 114.716 70.941,114.298 71.171,114.121 71.117 C 113.945 71.064,113.279 71.510,112.642 72.110 C 112.004 72.709,111.252 73.200,110.969 73.200 C 110.685 73.200,110.340 73.560,110.200 74.000 C 110.060 74.440,109.792 74.800,109.604 74.800 C 109.415 74.800,108.733 75.245,108.086 75.789 C 107.440 76.333,106.796 76.663,106.656 76.522 C 106.515 76.382,106.400 76.555,106.400 76.906 C 106.400 77.258,106.049 77.657,105.620 77.794 C 105.192 77.930,104.730 78.392,104.594 78.820 C 104.457 79.249,104.078 79.600,103.749 79.600 C 103.400 79.600,103.271 79.792,103.438 80.062 C 103.603 80.329,103.549 80.416,103.309 80.267 C 103.081 80.126,102.439 80.368,101.884 80.805 C 101.328 81.242,100.632 81.603,100.337 81.606 C 99.899 81.611,99.902 81.677,100.353 81.962 C 100.787 82.237,100.723 82.371,100.053 82.583 C 99.584 82.732,99.200 83.100,99.200 83.400 C 99.200 83.700,98.795 84.074,98.300 84.230 C 97.805 84.387,97.112 84.845,96.759 85.250 C 96.407 85.654,96.006 85.873,95.869 85.735 C 95.731 85.598,95.492 85.816,95.337 86.220 C 94.891 87.382,91.398 90.666,90.816 90.472 C 90.506 90.369,90.402 90.480,90.564 90.742 C 90.847 91.199,88.681 93.600,87.986 93.600 C 87.774 93.600,87.600 93.780,87.600 94.000 C 87.600 94.220,87.330 94.400,87.000 94.400 C 86.670 94.400,86.400 94.591,86.400 94.824 C 86.400 95.057,86.608 95.119,86.862 94.962 C 87.148 94.785,87.215 94.852,87.038 95.138 C 86.881 95.392,86.583 95.600,86.376 95.600 C 85.967 95.600,84.400 97.054,84.400 97.435 C 84.400 98.005,80.024 101.881,79.852 101.462 C 79.748 101.208,79.649 101.334,79.632 101.742 C 79.614 102.151,79.150 102.839,78.600 103.271 C 78.050 103.704,77.600 104.328,77.600 104.658 C 77.600 105.262,76.622 106.483,76.348 106.221 C 76.266 106.144,75.968 106.333,75.684 106.640 C 75.401 106.948,75.274 107.200,75.402 107.200 C 75.531 107.200,75.186 107.650,74.636 108.200 C 74.086 108.750,73.483 109.200,73.295 109.200 C 73.107 109.200,72.604 109.473,72.176 109.806 C 71.740 110.146,71.641 110.365,71.950 110.306 C 72.252 110.248,72.591 110.450,72.702 110.756 C 72.826 111.096,72.729 111.203,72.452 111.032 C 72.187 110.868,72.000 111.021,72.000 111.400 C 72.000 111.756,71.853 111.956,71.673 111.845 C 71.493 111.734,71.100 111.984,70.800 112.400 C 70.500 112.816,70.109 113.067,69.932 112.958 C 69.754 112.848,69.716 113.038,69.847 113.379 C 70.062 113.938,69.623 114.193,68.700 114.047 C 68.410 114.002,68.325 114.234,68.240 115.300 C 68.218 115.575,67.882 116.037,67.493 116.327 C 67.105 116.617,66.914 117.067,67.070 117.327 C 67.226 117.587,67.004 117.536,66.577 117.213 C 66.150 116.890,65.926 116.777,66.081 116.961 C 66.235 117.145,66.099 117.558,65.777 117.880 C 65.456 118.201,65.285 118.614,65.397 118.796 C 65.510 118.978,65.048 119.593,64.370 120.164 C 63.693 120.734,63.255 121.200,63.398 121.200 C 63.540 121.200,63.373 121.485,63.025 121.832 C 62.677 122.180,62.512 122.658,62.658 122.894 C 62.815 123.149,62.736 123.207,62.462 123.038 C 62.208 122.881,62.000 122.954,62.000 123.200 C 62.000 123.446,61.829 123.542,61.620 123.412 C 61.411 123.283,61.120 123.821,60.972 124.608 C 60.825 125.394,60.616 125.950,60.510 125.843 C 60.188 125.522,58.400 127.515,58.400 128.194 C 58.400 128.541,58.130 128.929,57.800 129.055 C 57.470 129.182,57.200 129.646,57.200 130.086 C 57.200 130.657,57.016 130.815,56.555 130.638 C 56.094 130.461,55.977 130.563,56.143 130.995 C 56.275 131.339,56.156 131.600,55.868 131.600 C 55.589 131.600,55.133 132.230,54.854 133.000 C 54.576 133.770,54.079 134.400,53.751 134.400 C 53.422 134.400,53.263 134.578,53.397 134.795 C 53.531 135.012,53.267 135.591,52.811 136.081 C 52.354 136.571,52.069 137.203,52.178 137.486 C 52.297 137.797,52.065 138.000,51.587 138.000 C 51.084 138.000,50.800 138.271,50.800 138.751 C 50.800 139.164,50.530 139.726,50.200 140.000 C 49.870 140.274,49.600 140.796,49.600 141.161 C 49.600 141.525,49.240 142.083,48.800 142.400 C 48.360 142.717,48.000 143.207,48.000 143.488 C 48.000 143.770,47.820 144.000,47.600 144.000 C 47.380 144.000,47.200 144.341,47.200 144.757 C 47.200 145.174,46.930 145.618,46.600 145.745 C 46.270 145.871,46.000 146.274,46.000 146.641 C 46.000 147.007,45.666 147.597,45.257 147.953 C 44.849 148.309,44.386 149.008,44.228 149.506 C 44.071 150.004,43.788 150.316,43.599 150.199 C 43.410 150.083,43.125 150.198,42.966 150.455 C 42.792 150.737,42.849 150.817,43.111 150.655 C 43.907 150.163,43.969 151.046,43.179 151.615 C 42.750 151.924,42.400 152.407,42.400 152.688 C 42.400 152.970,42.220 153.200,42.000 153.200 C 41.780 153.200,41.600 153.571,41.600 154.024 C 41.600 154.477,41.422 154.737,41.205 154.603 C 40.976 154.462,40.912 154.626,41.052 154.991 C 41.197 155.369,40.954 155.920,40.447 156.359 C 39.981 156.763,39.600 157.283,39.600 157.514 C 39.600 157.744,39.391 158.003,39.135 158.088 C 38.879 158.174,38.622 158.504,38.563 158.822 C 38.326 160.101,37.370 162.219,36.892 162.525 C 36.612 162.703,36.488 163.018,36.615 163.225 C 36.743 163.431,36.657 163.600,36.424 163.600 C 36.191 163.600,36.000 163.947,36.000 164.371 C 36.000 164.796,35.730 165.413,35.400 165.743 C 35.070 166.073,34.800 166.536,34.800 166.771 C 34.800 167.007,34.540 167.200,34.223 167.200 C 33.861 167.200,33.703 167.499,33.800 168.000 C 33.885 168.440,33.784 168.800,33.577 168.800 C 33.370 168.800,33.200 169.081,33.200 169.424 C 33.200 169.767,33.045 169.952,32.856 169.835 C 32.667 169.718,32.560 170.055,32.618 170.584 C 32.698 171.317,32.574 171.488,32.092 171.303 C 31.651 171.134,31.529 171.237,31.686 171.647 C 31.810 171.970,31.667 172.567,31.368 172.976 C 31.070 173.384,30.920 173.871,31.036 174.059 C 31.152 174.247,31.072 174.400,30.859 174.400 C 30.645 174.400,30.349 175.120,30.200 176.000 C 30.027 177.024,29.717 177.600,29.338 177.600 C 28.929 177.600,28.824 177.846,28.999 178.397 C 29.191 179.003,29.105 179.139,28.642 178.961 C 28.189 178.787,28.074 178.944,28.195 179.574 C 28.285 180.042,28.188 180.316,27.979 180.187 C 27.626 179.969,27.423 180.544,27.568 181.347 C 27.603 181.537,27.354 182.116,27.016 182.632 C 26.677 183.149,26.400 184.047,26.400 184.629 C 26.400 185.365,26.232 185.621,25.845 185.473 C 25.466 185.327,25.350 185.486,25.478 185.975 C 25.588 186.398,25.396 186.793,25.007 186.942 C 24.645 187.081,24.466 187.384,24.609 187.615 C 24.752 187.846,24.696 188.252,24.486 188.518 C 24.275 188.783,24.154 189.315,24.216 189.700 C 24.278 190.085,24.165 190.400,23.965 190.400 C 23.764 190.400,23.600 190.771,23.600 191.224 C 23.600 191.677,23.420 191.936,23.200 191.800 C 22.860 191.590,22.596 192.709,22.753 193.700 C 22.779 193.865,22.536 194.000,22.213 194.000 C 21.874 194.000,21.716 194.237,21.840 194.560 C 21.958 194.867,21.875 195.230,21.655 195.366 C 21.435 195.502,21.336 196.060,21.435 196.607 C 21.620 197.625,21.033 197.997,20.657 197.100 C 20.541 196.825,20.511 197.264,20.590 198.075 C 20.698 199.184,20.600 199.498,20.196 199.343 C 19.825 199.201,19.721 199.377,19.861 199.913 C 19.982 200.375,19.828 200.780,19.482 200.913 C 19.089 201.064,18.967 201.493,19.107 202.228 C 19.240 202.921,19.165 203.226,18.903 203.064 C 18.540 202.839,17.732 206.028,17.932 206.900 C 17.969 207.065,17.820 207.200,17.600 207.200 C 17.380 207.200,17.200 207.560,17.200 208.000 C 17.200 208.440,16.975 208.755,16.700 208.700 C 16.376 208.635,16.241 208.988,16.315 209.700 C 16.378 210.305,16.264 210.800,16.061 210.800 C 15.706 210.800,15.193 212.665,15.161 214.068 C 15.152 214.435,14.902 214.829,14.604 214.943 C 14.280 215.067,14.149 215.484,14.278 215.978 C 14.397 216.432,14.250 217.098,13.952 217.458 C 13.654 217.817,13.468 218.556,13.539 219.101 C 13.616 219.689,13.506 219.989,13.267 219.841 C 13.022 219.690,12.756 220.602,12.589 222.167 C 12.393 223.998,12.167 224.685,11.808 224.548 C 11.450 224.410,11.362 224.668,11.508 225.429 C 11.644 226.140,11.509 226.619,11.110 226.842 C 10.736 227.052,10.577 227.546,10.691 228.143 C 10.792 228.673,10.678 229.228,10.438 229.377 C 10.197 229.525,10.000 230.076,10.000 230.600 C 10.000 231.124,9.833 231.656,9.630 231.782 C 9.426 231.907,9.328 232.554,9.412 233.218 C 9.501 233.920,9.405 234.327,9.183 234.189 C 8.969 234.057,8.794 234.539,8.787 235.276 C 8.780 236.004,8.529 236.923,8.230 237.319 C 7.930 237.714,7.780 238.401,7.896 238.845 C 8.012 239.289,7.917 240.046,7.685 240.526 C 7.301 241.324,6.874 243.366,6.667 245.400 C 6.612 245.951,6.339 246.164,5.793 246.083 C 5.287 246.009,5.172 246.084,5.474 246.291 C 6.024 246.667,5.906 249.340,5.307 250.091 C 5.083 250.371,4.967 251.005,5.048 251.500 C 5.129 251.995,5.058 252.400,4.892 252.400 C 4.725 252.400,4.534 253.500,4.467 254.845 C 4.401 256.190,4.198 257.678,4.018 258.153 C 3.837 258.628,3.744 259.507,3.810 260.108 C 3.876 260.709,3.765 261.200,3.565 261.200 C 3.364 261.200,3.200 262.179,3.200 263.376 C 3.200 264.573,3.020 265.664,2.800 265.800 C 2.580 265.936,2.400 267.192,2.400 268.590 C 2.400 270.118,2.220 271.193,1.950 271.283 C 1.687 271.371,1.500 272.383,1.500 273.724 C 1.500 274.984,1.350 276.107,1.167 276.220 C 0.985 276.333,0.943 276.708,1.076 277.053 C 1.208 277.398,1.065 277.843,0.758 278.040 C 0.324 278.320,0.310 278.471,0.695 278.720 C 1.380 279.164,1.203 284.400,0.502 284.400 C 0.139 284.400,0.000 285.336,0.000 287.787 C 0.000 290.457,0.114 291.131,0.537 290.969 C 0.943 290.813,1.061 291.227,1.024 292.681 C 0.997 293.737,1.111 295.492,1.276 296.583 C 1.491 297.994,1.437 298.656,1.089 298.877 C 0.707 299.120,0.709 299.189,1.100 299.194 C 1.444 299.198,1.600 299.950,1.600 301.600 C 1.600 302.920,1.775 304.000,1.990 304.000 C 2.214 304.000,2.337 305.125,2.278 306.646 C 2.207 308.499,2.329 309.351,2.686 309.488 C 3.039 309.624,3.170 310.491,3.114 312.314 C 3.060 314.076,3.193 314.998,3.517 315.106 C 3.783 315.194,3.997 315.747,3.994 316.333 C 3.989 317.169,3.904 317.270,3.600 316.800 C 3.070 315.980,3.097 316.660,3.634 317.664 C 3.873 318.110,4.129 319.583,4.203 320.937 C 4.277 322.292,4.352 323.546,4.369 323.724 C 4.386 323.902,4.600 323.923,4.846 323.772 C 5.159 323.578,5.238 324.109,5.111 325.565 C 4.978 327.099,5.081 327.718,5.512 327.959 C 5.943 328.200,6.046 328.818,5.912 330.359 C 5.771 331.970,5.850 332.390,6.261 332.232 C 6.552 332.120,6.761 332.157,6.725 332.314 C 6.544 333.103,7.349 339.066,7.695 339.498 C 7.915 339.771,8.006 340.457,7.898 341.020 C 7.790 341.585,7.938 342.281,8.227 342.570 C 8.515 342.858,8.720 343.703,8.681 344.447 C 8.637 345.281,8.786 345.766,9.069 345.712 C 9.377 345.653,9.468 346.149,9.346 347.212 C 9.237 348.166,9.331 348.800,9.582 348.800 C 9.812 348.800,10.000 349.430,10.000 350.200 C 10.000 350.970,10.202 351.600,10.450 351.600 C 10.738 351.600,10.812 352.038,10.657 352.815 C 10.483 353.687,10.582 354.095,11.007 354.258 C 11.370 354.397,11.600 355.012,11.600 355.843 C 11.600 356.589,11.747 357.200,11.927 357.200 C 12.107 357.200,12.284 357.695,12.320 358.300 C 12.357 358.905,12.464 359.850,12.560 360.400 C 12.655 360.950,12.748 361.816,12.767 362.324 C 12.785 362.832,12.980 363.136,13.200 363.000 C 13.433 362.856,13.600 363.263,13.600 363.976 C 13.600 364.649,13.780 365.200,14.000 365.200 C 14.220 365.200,14.400 365.830,14.400 366.600 C 14.400 367.370,14.600 368.000,14.845 368.000 C 15.111 368.000,15.221 368.476,15.118 369.179 C 15.023 369.827,15.065 370.283,15.212 370.193 C 15.359 370.102,15.495 370.603,15.515 371.306 C 15.535 372.009,15.743 372.648,15.976 372.725 C 16.209 372.803,16.400 373.291,16.400 373.810 C 16.400 374.328,16.597 374.875,16.838 375.023 C 17.078 375.172,17.195 375.714,17.097 376.227 C 16.995 376.761,17.138 377.244,17.431 377.357 C 17.713 377.465,18.067 378.374,18.217 379.377 C 18.368 380.380,18.670 381.200,18.889 381.200 C 19.109 381.200,19.179 381.628,19.046 382.158 C 18.878 382.828,18.999 383.191,19.449 383.363 C 19.883 383.530,20.030 383.933,19.901 384.605 C 19.774 385.271,19.891 385.600,20.255 385.600 C 20.565 385.600,20.800 386.018,20.800 386.567 C 20.800 387.098,20.992 387.597,21.226 387.675 C 21.460 387.753,21.754 388.578,21.878 389.509 C 22.003 390.439,22.283 391.200,22.499 391.200 C 22.716 391.200,22.807 391.650,22.702 392.200 C 22.568 392.899,22.687 393.200,23.098 393.200 C 23.456 393.200,23.596 393.435,23.455 393.800 C 23.312 394.173,23.458 394.400,23.841 394.400 C 24.234 394.400,24.432 394.726,24.388 395.300 C 24.296 396.503,24.797 398.000,25.292 398.000 C 25.511 398.000,25.614 398.521,25.521 399.159 C 25.389 400.056,25.484 400.266,25.941 400.091 C 26.303 399.952,26.427 400.033,26.262 400.300 C 26.114 400.539,26.264 401.007,26.595 401.338 C 26.927 401.669,27.096 402.206,26.972 402.530 C 26.847 402.854,26.938 403.238,27.173 403.383 C 27.408 403.528,27.600 403.997,27.600 404.424 C 27.600 404.851,27.780 405.200,28.000 405.200 C 28.220 405.200,28.400 405.470,28.400 405.800 C 28.400 406.130,28.591 406.400,28.825 406.400 C 29.059 406.400,29.218 406.715,29.179 407.100 C 29.057 408.296,29.186 408.856,29.533 408.641 C 29.717 408.528,29.895 408.652,29.930 408.918 C 30.192 410.932,30.359 411.386,30.797 411.284 C 31.106 411.212,31.205 411.409,31.056 411.799 C 30.913 412.170,31.063 412.526,31.419 412.663 C 31.786 412.804,31.934 413.177,31.796 413.614 C 31.670 414.009,31.783 414.466,32.046 414.628 C 32.348 414.815,32.418 414.754,32.238 414.462 C 32.081 414.208,32.120 414.000,32.324 414.000 C 32.528 414.000,32.797 414.761,32.922 415.691 C 33.046 416.622,33.340 417.447,33.574 417.525 C 33.808 417.603,34.000 418.012,34.000 418.433 C 34.000 418.855,34.142 419.200,34.315 419.200 C 34.488 419.200,34.658 419.580,34.693 420.045 C 34.728 420.509,35.037 421.199,35.379 421.577 C 35.722 421.955,35.886 422.381,35.744 422.523 C 35.602 422.665,35.781 422.895,36.143 423.033 C 36.504 423.172,36.800 423.614,36.800 424.016 C 36.800 424.417,37.160 424.860,37.600 425.000 C 38.383 425.248,38.595 426.040,38.511 428.400 C 38.491 428.950,38.563 429.175,38.671 428.900 C 38.995 428.073,39.710 428.338,39.484 429.201 C 39.369 429.641,39.425 429.908,39.609 429.795 C 39.792 429.681,40.005 429.996,40.081 430.494 C 40.157 430.992,40.432 431.358,40.692 431.306 C 40.953 431.254,41.284 431.839,41.427 432.606 C 41.571 433.373,41.860 434.000,42.068 434.000 C 42.277 434.000,42.337 434.178,42.203 434.395 C 42.066 434.618,42.217 434.692,42.547 434.565 C 42.983 434.398,43.108 434.598,43.027 435.334 C 42.943 436.103,43.064 436.275,43.559 436.090 C 44.122 435.879,44.131 435.935,43.632 436.548 C 43.159 437.129,43.157 437.225,43.616 437.123 C 43.937 437.051,44.192 437.353,44.227 437.846 C 44.307 438.994,44.728 439.600,45.447 439.600 C 45.777 439.600,45.949 439.760,45.828 439.955 C 45.707 440.150,45.873 440.529,46.196 440.797 C 47.163 441.599,47.994 443.532,47.459 443.734 C 47.204 443.830,47.355 444.051,47.800 444.231 C 48.898 444.676,49.279 445.130,50.203 447.095 C 50.641 448.028,51.154 448.793,51.343 448.795 C 51.531 448.798,51.572 449.095,51.434 449.457 C 51.223 450.006,51.282 450.030,51.791 449.608 C 52.522 449.001,52.609 449.615,51.900 450.379 C 51.500 450.810,51.500 450.861,51.903 450.633 C 52.205 450.463,52.512 450.639,52.671 451.075 C 52.817 451.474,53.429 452.281,54.031 452.868 C 54.633 453.455,55.238 454.289,55.375 454.721 C 55.512 455.153,56.166 456.073,56.827 456.765 C 57.488 457.457,58.002 458.243,57.967 458.512 C 57.833 459.564,58.022 460.059,58.496 459.901 C 59.139 459.687,60.127 460.671,59.800 461.200 C 59.662 461.423,59.831 461.714,60.175 461.846 C 60.519 461.978,60.800 462.336,60.800 462.643 C 60.800 462.949,61.070 463.200,61.400 463.200 C 61.783 463.200,62.000 463.585,62.000 464.267 C 62.000 464.853,62.119 465.214,62.264 465.069 C 62.409 464.924,62.782 465.167,63.091 465.609 C 63.401 466.052,63.822 466.310,64.027 466.183 C 64.232 466.056,64.400 466.413,64.400 466.976 C 64.400 467.539,64.593 468.000,64.829 468.000 C 65.393 468.000,66.400 469.022,66.400 469.595 C 66.400 469.844,66.580 469.936,66.800 469.800 C 67.020 469.664,67.200 469.929,67.200 470.389 C 67.200 470.849,67.480 471.333,67.823 471.464 C 68.166 471.596,68.352 471.948,68.237 472.247 C 68.123 472.546,68.157 472.764,68.314 472.732 C 69.160 472.558,69.863 473.337,69.801 474.380 C 69.754 475.176,69.892 475.463,70.256 475.323 C 70.825 475.105,72.000 476.080,72.000 476.771 C 72.000 477.007,72.193 477.200,72.429 477.200 C 72.939 477.200,74.000 478.201,74.000 478.683 C 74.000 478.870,74.360 479.283,74.800 479.600 C 75.240 479.917,75.600 480.497,75.600 480.888 C 75.600 481.280,75.870 481.600,76.200 481.600 C 76.530 481.600,76.800 481.768,76.800 481.973 C 76.800 482.178,77.160 482.460,77.600 482.600 C 78.040 482.740,78.400 483.032,78.400 483.251 C 78.400 483.469,78.222 483.537,78.005 483.403 C 77.780 483.264,77.710 483.421,77.843 483.767 C 77.971 484.101,78.194 484.359,78.338 484.340 C 79.029 484.248,79.707 484.426,79.491 484.642 C 79.358 484.775,79.688 485.291,80.225 485.788 C 80.761 486.285,81.200 486.974,81.200 487.319 C 81.200 487.664,81.560 488.060,82.000 488.200 C 82.440 488.340,82.800 488.731,82.800 489.070 C 82.800 489.451,83.027 489.598,83.395 489.457 C 83.723 489.332,83.971 489.357,83.948 489.514 C 83.816 490.400,84.109 490.861,85.024 491.209 C 85.656 491.449,85.937 491.778,85.758 492.067 C 85.562 492.386,85.689 492.451,86.155 492.273 C 86.533 492.128,86.741 492.173,86.617 492.372 C 86.261 492.948,87.562 494.000,88.629 494.000 C 89.172 494.000,89.600 494.235,89.600 494.534 C 89.600 495.243,91.837 497.215,92.250 496.870 C 92.428 496.722,92.310 496.950,91.987 497.377 C 91.627 497.854,91.592 498.038,91.897 497.855 C 92.188 497.680,92.800 497.938,93.377 498.478 C 93.919 498.985,94.595 499.616,94.881 499.881 C 95.889 500.814,96.349 501.518,96.109 501.757 C 95.976 501.891,96.167 502.000,96.533 502.000 C 96.900 502.000,97.200 502.281,97.200 502.624 C 97.200 502.967,97.392 503.128,97.627 502.983 C 97.862 502.838,98.152 503.096,98.272 503.555 C 98.393 504.015,98.640 504.299,98.821 504.187 C 99.003 504.074,99.748 504.346,100.476 504.790 C 101.204 505.234,101.622 505.598,101.404 505.599 C 101.186 505.599,101.493 506.050,102.087 506.600 C 102.680 507.150,103.418 507.600,103.727 507.600 C 104.035 507.600,104.628 508.070,105.044 508.644 C 106.271 510.339,106.814 510.800,107.586 510.800 C 108.252 510.800,109.010 511.796,108.868 512.486 C 108.836 512.643,109.077 512.668,109.405 512.543 C 109.780 512.399,110.000 512.552,110.000 512.957 C 110.000 513.380,110.350 513.600,111.024 513.600 C 111.604 513.600,111.940 513.773,111.800 514.000 C 111.664 514.220,111.863 514.400,112.243 514.400 C 112.623 514.400,112.822 514.511,112.686 514.648 C 112.186 515.147,114.480 516.653,115.400 516.430 C 115.620 516.377,115.667 516.467,115.503 516.630 C 115.056 517.078,115.990 518.000,116.892 518.000 C 117.421 518.000,117.611 518.193,117.463 518.580 C 117.314 518.969,117.433 519.085,117.825 518.935 C 118.236 518.777,118.336 518.901,118.162 519.355 C 118.026 519.710,118.099 520.000,118.324 520.000 C 118.549 520.000,118.803 519.792,118.887 519.539 C 119.052 519.045,121.200 520.965,121.200 521.606 C 121.200 521.809,121.500 521.860,121.866 521.719 C 122.349 521.534,122.442 521.609,122.204 521.994 C 121.991 522.338,122.031 522.428,122.320 522.250 C 122.878 521.904,124.444 523.205,124.114 523.739 C 123.969 523.973,124.142 524.031,124.534 523.881 C 124.956 523.719,125.200 523.826,125.200 524.175 C 125.200 524.519,125.485 524.650,125.961 524.526 C 126.490 524.388,126.806 524.588,126.994 525.180 C 127.182 525.774,127.483 525.964,127.985 525.805 C 128.431 525.663,128.797 525.816,128.947 526.207 C 129.081 526.554,129.732 527.027,130.395 527.258 C 131.058 527.489,131.600 527.925,131.600 528.227 C 131.600 528.550,131.846 528.680,132.200 528.545 C 132.530 528.418,132.800 528.514,132.800 528.757 C 132.800 529.001,133.160 529.200,133.600 529.200 C 134.040 529.200,134.400 529.368,134.400 529.573 C 134.400 529.778,134.781 530.067,135.248 530.215 C 135.714 530.363,136.641 531.005,137.307 531.642 C 137.973 532.279,138.812 532.800,139.171 532.800 C 139.530 532.800,140.071 533.144,140.374 533.564 C 140.676 533.984,141.166 534.234,141.462 534.121 C 141.758 534.007,142.000 534.114,142.000 534.357 C 142.000 534.601,142.354 534.800,142.787 534.800 C 143.298 534.800,143.499 534.997,143.360 535.360 C 143.242 535.667,143.366 536.055,143.635 536.221 C 143.946 536.414,144.021 536.357,143.841 536.066 C 143.685 535.814,144.763 536.237,146.236 537.004 C 147.709 537.772,149.158 538.400,149.457 538.400 C 149.933 538.400,150.157 538.856,150.067 539.641 C 150.052 539.773,150.481 539.797,151.020 539.694 C 151.745 539.556,152.000 539.681,152.000 540.177 C 152.000 540.567,152.186 540.732,152.445 540.572 C 152.689 540.421,153.004 540.465,153.145 540.670 C 153.497 541.183,156.180 542.400,156.960 542.400 C 157.312 542.400,157.600 542.659,157.600 542.976 C 157.600 543.293,157.808 543.681,158.062 543.838 C 158.362 544.023,158.414 543.947,158.213 543.620 C 158.026 543.319,158.295 543.375,158.883 543.760 C 159.422 544.114,160.013 544.267,160.196 544.101 C 160.378 543.936,160.411 544.124,160.268 544.521 C 160.126 544.917,160.169 545.143,160.363 545.023 C 160.901 544.690,163.218 545.247,162.970 545.649 C 162.850 545.842,163.123 546.000,163.576 546.000 C 164.029 546.000,164.400 546.180,164.400 546.400 C 164.400 546.620,164.648 546.800,164.951 546.800 C 165.254 546.800,165.724 547.068,165.996 547.396 C 166.268 547.723,166.618 547.912,166.774 547.816 C 166.930 547.720,167.560 547.902,168.174 548.220 C 168.789 548.539,169.641 548.800,170.069 548.800 C 170.497 548.800,170.736 548.980,170.600 549.200 C 170.464 549.420,170.613 549.600,170.931 549.600 C 171.249 549.600,172.024 549.869,172.654 550.198 C 173.284 550.526,174.205 550.796,174.700 550.798 C 175.224 550.799,175.600 551.046,175.600 551.387 C 175.600 551.745,175.835 551.885,176.200 551.745 C 176.530 551.618,176.800 551.714,176.800 551.957 C 176.800 552.201,177.171 552.400,177.624 552.400 C 178.077 552.400,178.336 552.580,178.200 552.800 C 178.064 553.020,178.188 553.212,178.476 553.228 C 180.140 553.315,181.365 553.618,181.943 554.084 C 182.305 554.375,182.960 554.607,183.400 554.598 C 183.840 554.590,184.529 554.884,184.932 555.251 C 185.334 555.618,186.463 556.039,187.440 556.185 C 188.416 556.331,189.111 556.620,188.984 556.826 C 188.857 557.032,188.898 557.214,189.076 557.231 C 190.156 557.333,190.951 557.594,191.160 557.917 C 191.292 558.120,191.714 558.238,192.098 558.179 C 192.483 558.120,192.892 558.225,193.008 558.413 C 193.124 558.600,194.018 558.874,194.995 559.020 C 195.992 559.170,196.734 559.487,196.686 559.743 C 196.637 560.004,196.987 560.146,197.503 560.074 C 198.033 560.001,198.502 560.200,198.639 560.557 C 198.805 560.991,199.206 561.099,200.036 560.933 C 200.770 560.786,201.200 560.866,201.200 561.150 C 201.200 561.398,201.650 561.600,202.200 561.600 C 202.750 561.600,203.200 561.755,203.200 561.945 C 203.200 562.134,203.650 562.203,204.200 562.098 C 204.752 561.992,205.200 562.095,205.200 562.326 C 205.200 562.556,205.605 562.802,206.100 562.872 C 206.694 562.957,206.979 563.253,206.937 563.743 C 206.892 564.286,206.994 564.366,207.317 564.043 C 207.926 563.434,209.624 563.479,209.500 564.100 C 209.438 564.412,209.748 564.551,210.324 564.471 C 210.832 564.400,211.462 564.501,211.724 564.695 C 211.986 564.890,212.470 565.032,212.800 565.011 C 213.130 564.990,213.518 565.142,213.662 565.349 C 213.806 565.555,214.466 565.708,215.130 565.690 C 215.802 565.671,216.428 565.895,216.543 566.197 C 216.667 566.519,217.084 566.651,217.576 566.522 C 218.045 566.400,218.400 566.499,218.400 566.753 C 218.400 567.009,219.095 567.200,220.024 567.200 C 220.917 567.200,221.548 567.360,221.427 567.556 C 221.306 567.752,221.907 567.844,222.762 567.761 C 223.867 567.654,224.384 567.780,224.544 568.198 C 224.683 568.561,225.030 568.687,225.450 568.525 C 225.936 568.339,226.041 568.410,225.817 568.772 C 225.566 569.179,225.684 569.183,226.412 568.793 C 227.162 568.392,227.284 568.404,227.108 568.862 C 226.947 569.281,227.276 569.406,228.448 569.373 C 229.301 569.348,230.000 569.479,230.000 569.664 C 230.000 569.849,230.608 570.000,231.351 570.000 C 232.094 570.000,232.919 570.262,233.185 570.582 C 233.574 571.050,233.821 571.070,234.446 570.682 C 235.063 570.300,235.292 570.309,235.551 570.725 C 235.731 571.014,236.439 571.266,237.125 571.286 C 237.811 571.305,238.290 571.455,238.189 571.619 C 237.936 572.027,238.797 572.306,240.000 572.205 C 240.550 572.159,241.090 572.253,241.200 572.414 C 241.376 572.672,243.657 573.125,245.700 573.309 C 246.085 573.343,246.400 573.535,246.400 573.735 C 246.400 573.934,246.684 573.862,247.030 573.575 C 247.552 573.142,247.720 573.147,248.003 573.606 C 248.223 573.961,248.931 574.125,249.978 574.063 C 251.098 573.997,251.578 574.121,251.506 574.458 C 251.432 574.800,251.933 574.916,253.155 574.840 C 254.120 574.780,255.029 574.923,255.174 575.158 C 255.436 575.582,258.166 575.972,261.592 576.074 C 262.578 576.104,263.620 576.363,263.908 576.651 C 264.238 576.981,264.883 577.083,265.656 576.929 C 266.346 576.791,266.994 576.866,267.140 577.100 C 267.283 577.329,268.570 577.577,270.000 577.651 C 271.430 577.724,272.703 577.927,272.829 578.101 C 273.042 578.396,278.578 578.856,281.478 578.820 C 282.180 578.811,282.878 579.002,283.028 579.245 C 283.217 579.551,283.409 579.519,283.657 579.143 C 283.950 578.698,284.084 578.717,284.398 579.248 C 284.714 579.782,285.378 579.873,288.186 579.764 C 290.519 579.673,291.560 579.770,291.495 580.072 C 291.429 580.377,292.951 580.505,296.395 580.487 C 299.143 580.473,301.485 580.615,301.602 580.802 C 301.718 580.990,306.117 581.209,311.378 581.288 C 318.402 581.393,320.987 581.560,321.105 581.916 C 321.307 582.521,328.000 582.603,328.000 582.000 C 328.000 581.773,329.170 581.598,330.700 581.596 C 332.185 581.593,334.075 581.480,334.900 581.343 L 336.400 581.095 336.400 523.148 L 336.400 465.200 331.700 465.198 C 324.735 465.194,320.319 464.789,320.554 464.175 C 320.706 463.781,320.470 463.764,319.474 464.100 C 317.809 464.660,312.275 464.789,311.938 464.275 C 311.794 464.055,310.174 463.873,308.338 463.870 C 306.502 463.867,304.898 463.712,304.773 463.526 C 304.648 463.341,303.568 463.159,302.373 463.123 C 301.178 463.087,299.975 462.887,299.700 462.680 C 299.385 462.442,299.200 462.444,299.200 462.684 C 299.200 462.895,298.922 463.067,298.583 463.067 C 298.243 463.067,298.040 462.872,298.132 462.633 C 298.241 462.348,297.188 462.172,295.049 462.118 C 289.121 461.969,288.030 461.876,288.239 461.536 C 288.354 461.351,288.066 461.200,287.600 461.200 C 287.038 461.200,286.848 461.031,287.035 460.700 C 287.261 460.300,287.210 460.300,286.779 460.700 C 286.134 461.298,283.036 461.390,283.400 460.800 C 283.657 460.384,283.499 460.355,280.700 460.313 C 279.765 460.299,278.882 460.105,278.738 459.882 C 278.594 459.659,277.874 459.494,277.138 459.516 C 276.402 459.538,275.373 459.277,274.851 458.936 C 274.329 458.596,274.032 458.528,274.191 458.785 C 274.547 459.362,273.136 459.190,272.718 458.606 C 272.564 458.390,271.709 458.232,270.818 458.255 C 269.928 458.278,269.200 458.141,269.200 457.949 C 269.200 457.757,268.559 457.600,267.776 457.600 C 266.929 457.600,266.453 457.438,266.600 457.200 C 266.736 456.980,266.522 456.785,266.124 456.768 C 265.726 456.750,264.860 456.662,264.200 456.572 C 263.540 456.483,262.498 456.375,261.885 456.332 C 261.201 456.285,260.842 456.068,260.955 455.773 C 261.073 455.465,260.866 455.362,260.384 455.488 C 259.969 455.597,259.345 455.402,258.999 455.056 C 258.573 454.630,257.985 454.503,257.185 454.663 C 256.433 454.813,256.000 454.735,256.000 454.450 C 256.000 454.202,255.381 454.000,254.624 454.000 C 253.867 454.000,253.144 453.832,253.017 453.628 C 252.891 453.423,252.326 453.339,251.761 453.441 C 251.118 453.558,250.831 453.473,250.992 453.214 C 251.221 452.842,250.707 452.625,249.900 452.753 C 249.735 452.779,249.597 452.575,249.594 452.300 C 249.590 451.967,249.458 452.000,249.200 452.400 C 248.942 452.800,248.810 452.833,248.806 452.500 C 248.802 452.195,248.245 452.000,247.373 452.000 C 246.094 452.000,245.969 451.907,246.169 451.100 C 246.292 450.605,246.289 450.425,246.163 450.700 C 245.895 451.285,244.553 451.370,244.215 450.825 C 244.088 450.618,243.622 450.519,243.181 450.604 C 242.740 450.689,242.484 450.588,242.613 450.379 C 242.742 450.171,242.517 450.000,242.113 450.000 C 241.709 450.000,240.933 449.688,240.389 449.307 C 239.845 448.926,239.356 448.652,239.302 448.698 C 239.037 448.922,236.800 448.254,236.800 447.950 C 236.800 447.757,236.350 447.600,235.800 447.600 C 235.250 447.600,234.800 447.437,234.800 447.237 C 234.800 447.038,234.440 446.969,234.000 447.084 C 233.553 447.201,233.200 447.096,233.200 446.847 C 233.200 446.601,232.919 446.400,232.576 446.400 C 232.233 446.400,232.064 446.220,232.200 446.000 C 232.344 445.767,231.937 445.600,231.224 445.600 C 230.551 445.600,230.000 445.440,230.000 445.245 C 230.000 445.049,229.370 444.771,228.600 444.626 C 227.814 444.479,227.200 444.125,227.200 443.819 C 227.200 443.472,226.911 443.351,226.400 443.484 C 225.858 443.626,225.600 443.496,225.600 443.082 C 225.600 442.727,225.307 442.514,224.900 442.575 C 224.515 442.632,223.930 442.539,223.600 442.369 C 223.270 442.198,222.674 441.957,222.275 441.832 C 221.835 441.695,221.661 441.407,221.833 441.103 C 222.052 440.715,222.001 440.707,221.609 441.069 C 221.216 441.433,220.914 441.365,220.275 440.769 C 219.821 440.346,219.093 440.000,218.658 440.000 C 218.223 440.000,217.985 439.882,218.130 439.737 C 218.655 439.211,217.533 438.357,216.952 438.840 C 216.538 439.184,216.351 439.138,216.162 438.645 C 216.026 438.290,215.574 438.000,215.157 438.000 C 214.741 438.000,214.400 437.820,214.400 437.600 C 214.400 437.380,214.130 437.200,213.800 437.200 C 213.470 437.200,213.200 436.947,213.200 436.637 C 213.200 436.258,212.919 436.148,212.337 436.300 C 211.690 436.470,211.557 436.393,211.803 435.995 C 212.040 435.612,211.951 435.533,211.486 435.712 C 211.011 435.894,210.906 435.789,211.088 435.314 C 211.260 434.867,211.183 434.763,210.838 434.976 C 210.547 435.156,209.980 434.959,209.470 434.502 C 208.535 433.661,207.212 433.025,206.659 433.150 C 206.471 433.193,206.000 432.861,205.612 432.414 C 205.224 431.966,204.714 431.600,204.480 431.600 C 204.246 431.600,203.948 431.266,203.818 430.857 C 203.641 430.299,203.311 430.164,202.491 430.312 C 201.891 430.420,201.526 430.373,201.681 430.207 C 201.992 429.872,201.075 428.800,200.478 428.800 C 200.269 428.800,199.874 428.530,199.600 428.200 C 199.326 427.870,198.842 427.600,198.525 427.600 C 198.208 427.600,197.511 427.080,196.975 426.444 C 196.440 425.808,195.552 425.174,195.001 425.036 C 194.451 424.898,194.000 424.508,194.000 424.169 C 194.000 423.830,193.820 423.664,193.600 423.800 C 193.380 423.936,193.200 423.677,193.200 423.224 C 193.200 422.675,192.941 422.400,192.424 422.400 C 191.997 422.400,191.534 422.217,191.396 421.993 C 191.258 421.770,190.977 421.691,190.772 421.817 C 190.568 421.944,190.400 421.884,190.400 421.685 C 190.400 421.485,190.040 420.907,189.600 420.400 C 189.160 419.893,188.786 419.190,188.768 418.839 C 188.748 418.425,188.666 418.376,188.535 418.700 C 188.251 419.403,187.200 419.325,187.200 418.600 C 187.200 418.270,187.048 418.000,186.861 418.000 C 186.329 418.000,184.800 416.556,184.800 416.053 C 184.800 415.804,184.485 415.597,184.100 415.594 C 183.654 415.590,183.565 415.481,183.856 415.294 C 184.186 415.081,184.158 414.858,183.756 414.484 C 183.347 414.105,183.200 414.095,183.200 414.445 C 183.200 414.708,182.840 414.507,182.400 414.000 C 181.960 413.493,181.600 412.912,181.600 412.710 C 181.600 412.508,181.330 412.073,181.000 411.743 C 180.630 411.373,180.400 411.319,180.400 411.602 C 180.400 412.358,178.003 409.724,177.968 408.931 C 177.951 408.529,177.852 408.408,177.748 408.662 C 177.509 409.246,173.200 405.019,173.200 404.200 C 173.200 403.870,173.020 403.600,172.800 403.600 C 172.580 403.600,172.400 403.330,172.400 403.000 C 172.400 402.463,172.147 402.327,171.345 402.434 C 171.050 402.474,170.415 401.555,170.406 401.076 C 170.403 400.898,170.568 400.856,170.772 400.983 C 170.977 401.109,171.252 401.040,171.383 400.827 C 171.515 400.614,171.268 400.510,170.829 400.594 C 170.318 400.693,169.952 400.480,169.798 399.994 C 169.667 399.580,169.201 399.127,168.763 398.988 C 168.299 398.841,167.870 398.249,167.734 397.568 C 167.605 396.926,167.343 396.400,167.150 396.400 C 166.958 396.400,166.797 396.085,166.794 395.700 C 166.790 395.254,166.681 395.165,166.494 395.456 C 166.126 396.026,165.375 395.299,165.404 394.400 C 165.414 394.070,165.103 393.565,164.711 393.277 C 164.320 392.990,164.000 392.561,164.000 392.324 C 164.000 391.818,162.449 390.400,161.896 390.400 C 161.686 390.400,161.622 390.120,161.753 389.779 C 161.885 389.435,161.645 388.785,161.216 388.325 C 160.789 387.867,160.152 386.886,159.801 386.146 C 159.450 385.406,158.987 384.800,158.773 384.800 C 158.559 384.800,158.465 384.353,158.565 383.807 C 158.664 383.260,158.549 382.692,158.311 382.545 C 158.051 382.385,157.991 382.463,158.162 382.738 C 158.319 382.992,158.236 383.200,157.977 383.200 C 157.710 383.200,157.594 382.868,157.708 382.430 C 157.849 381.890,157.744 381.723,157.355 381.873 C 156.862 382.062,156.565 381.088,156.753 379.900 C 156.779 379.735,156.575 379.645,156.300 379.700 C 156.025 379.755,155.825 379.485,155.856 379.100 C 155.886 378.715,155.640 378.400,155.309 378.400 C 154.904 378.400,154.775 378.138,154.916 377.600 C 155.057 377.060,154.928 376.800,154.520 376.800 C 154.146 376.800,154.002 376.570,154.145 376.200 C 154.285 375.835,154.145 375.600,153.787 375.600 C 153.464 375.600,153.230 375.465,153.266 375.300 C 153.404 374.666,152.694 372.800,152.314 372.800 C 152.094 372.800,152.021 372.523,152.150 372.185 C 152.285 371.835,152.131 371.472,151.793 371.342 C 151.466 371.217,151.200 370.617,151.200 370.006 C 151.200 369.397,150.930 368.674,150.600 368.400 C 150.270 368.126,150.000 367.564,150.000 367.151 C 150.000 366.738,149.812 366.400,149.582 366.400 C 149.353 366.400,149.218 366.085,149.282 365.700 C 149.348 365.309,149.179 365.044,148.900 365.100 C 148.625 365.155,148.400 364.876,148.400 364.480 C 148.400 364.084,148.625 363.522,148.900 363.231 C 149.312 362.795,149.249 362.780,148.544 363.142 C 147.745 363.552,147.670 363.462,147.419 361.791 C 147.272 360.806,146.961 360.000,146.729 360.000 C 146.494 360.000,146.392 359.556,146.498 359.000 C 146.626 358.329,146.510 358.000,146.145 358.000 C 145.804 358.000,145.600 357.542,145.600 356.776 C 145.600 356.103,145.442 355.650,145.249 355.770 C 144.813 356.039,144.337 353.829,144.654 353.004 C 144.801 352.620,144.652 352.400,144.243 352.400 C 143.775 352.400,143.600 352.019,143.600 351.000 C 143.600 350.230,143.420 349.600,143.200 349.600 C 142.980 349.600,142.800 349.150,142.800 348.600 C 142.800 348.050,142.620 347.600,142.400 347.600 C 142.180 347.600,142.000 347.409,142.000 347.176 C 142.000 346.943,142.225 346.888,142.500 347.053 C 142.899 347.293,142.900 347.229,142.503 346.740 C 142.230 346.403,142.125 346.008,142.270 345.863 C 142.415 345.718,142.341 345.600,142.107 345.600 C 141.733 345.600,141.485 344.424,141.103 340.833 C 141.046 340.302,140.775 339.792,140.500 339.700 C 140.225 339.608,140.000 338.954,140.000 338.247 C 140.000 337.539,139.808 336.768,139.574 336.534 C 139.340 336.300,139.108 334.993,139.058 333.630 C 139.005 332.151,138.764 331.025,138.463 330.839 C 138.153 330.647,137.992 329.841,138.047 328.763 C 138.097 327.793,137.914 326.584,137.641 326.075 C 137.097 325.061,137.145 322.889,137.728 322.100 C 138.180 321.489,137.542 321.418,136.947 322.013 C 136.662 322.298,136.526 322.267,136.508 321.913 C 136.112 313.743,135.866 310.563,135.617 310.400 C 135.448 310.290,135.331 307.478,135.355 304.151 C 135.384 300.235,135.258 298.156,134.997 298.256 C 134.551 298.428,134.554 286.722,135.000 285.999 C 135.143 285.769,135.256 283.294,135.253 280.499 C 135.250 277.375,135.409 275.318,135.667 275.158 C 135.926 274.999,136.128 272.379,136.193 268.349 C 136.310 261.105,136.372 260.400,136.890 260.400 C 137.087 260.400,137.105 260.175,136.931 259.900 C 136.472 259.173,136.382 256.341,136.826 256.616 C 137.146 256.814,137.324 255.203,137.305 252.276 C 137.302 251.878,137.503 251.631,137.750 251.726 C 138.060 251.846,138.156 251.213,138.060 249.698 C 137.983 248.487,138.095 247.385,138.309 247.248 C 138.625 247.046,139.214 243.545,139.311 241.287 C 139.326 240.933,139.462 240.902,139.747 241.187 C 140.436 241.876,140.855 241.650,140.414 240.826 C 139.830 239.734,139.881 238.681,140.500 239.053 C 140.878 239.280,140.874 239.198,140.483 238.716 C 140.090 238.230,140.081 238.040,140.446 237.918 C 140.710 237.830,140.910 237.182,140.890 236.479 C 140.870 235.776,141.021 235.200,141.227 235.200 C 141.432 235.200,141.600 234.750,141.600 234.200 C 141.600 233.650,141.780 233.200,142.000 233.200 C 142.220 233.200,142.374 233.065,142.341 232.900 C 142.175 232.050,142.964 229.223,143.416 229.049 C 143.721 228.932,143.848 228.506,143.722 228.024 C 143.582 227.489,143.698 227.200,144.053 227.200 C 144.379 227.200,144.628 226.714,144.669 226.000 C 144.826 223.296,144.916 222.800,145.250 222.800 C 145.442 222.800,145.600 222.524,145.600 222.187 C 145.600 221.851,145.869 221.472,146.198 221.346 C 146.526 221.219,146.696 220.955,146.574 220.758 C 146.452 220.561,146.588 220.397,146.876 220.394 C 147.258 220.389,147.237 220.281,146.800 219.994 C 146.424 219.747,146.349 219.488,146.600 219.300 C 147.326 218.755,148.032 217.175,147.752 216.722 C 147.585 216.452,147.658 216.389,147.938 216.562 C 148.242 216.750,148.400 216.490,148.400 215.800 C 148.400 215.204,148.572 214.859,148.800 215.000 C 149.020 215.136,149.200 214.877,149.200 214.424 C 149.200 213.971,149.368 213.600,149.573 213.600 C 150.002 213.600,150.603 212.042,150.461 211.300 C 150.408 211.025,150.553 210.800,150.782 210.800 C 151.012 210.800,151.200 210.410,151.200 209.933 C 151.200 209.457,151.317 209.184,151.461 209.327 C 151.758 209.624,152.800 207.787,152.800 206.967 C 152.800 206.650,153.049 206.521,153.400 206.655 C 153.974 206.876,154.178 206.434,154.029 205.295 C 153.992 205.017,154.230 204.687,154.556 204.562 C 154.882 204.436,155.052 204.079,154.932 203.767 C 154.812 203.455,154.914 203.200,155.157 203.200 C 155.401 203.200,155.600 202.859,155.600 202.443 C 155.600 202.026,155.870 201.582,156.200 201.455 C 156.530 201.329,156.800 200.899,156.800 200.501 C 156.800 200.103,157.160 199.517,157.600 199.200 C 158.040 198.883,158.400 198.406,158.400 198.141 C 158.400 197.875,158.874 197.285,159.454 196.829 C 160.034 196.373,160.304 196.000,160.054 196.000 C 159.804 196.000,159.600 195.820,159.600 195.600 C 159.600 195.380,159.960 195.200,160.400 195.200 C 160.925 195.200,161.200 194.933,161.200 194.424 C 161.200 193.997,161.383 193.534,161.607 193.396 C 161.830 193.258,161.891 192.932,161.742 192.672 C 161.594 192.413,161.612 192.326,161.783 192.481 C 162.169 192.828,163.198 191.849,163.205 191.129 C 163.208 190.838,163.838 190.193,164.605 189.696 C 165.583 189.063,166.000 188.495,166.000 187.796 C 166.000 187.248,166.153 186.800,166.341 186.800 C 166.888 186.800,169.153 184.486,168.876 184.210 C 168.738 184.071,168.911 184.068,169.261 184.202 C 169.826 184.419,170.270 183.927,170.615 182.700 C 170.662 182.535,170.744 182.265,170.797 182.100 C 170.851 181.935,170.869 181.652,170.837 181.470 C 170.806 181.289,170.942 181.240,171.139 181.362 C 171.484 181.576,173.600 179.341,173.600 178.762 C 173.600 178.606,174.140 178.290,174.800 178.060 C 175.460 177.830,176.000 177.456,176.000 177.230 C 176.000 176.501,180.419 172.365,180.888 172.654 C 181.169 172.828,181.251 172.710,181.108 172.337 C 180.854 171.676,182.202 170.630,182.816 171.010 C 183.027 171.140,183.200 171.007,183.200 170.713 C 183.200 170.025,184.639 168.782,185.030 169.133 C 185.194 169.280,185.198 169.174,185.039 168.897 C 184.659 168.238,185.719 167.200,186.771 167.200 C 187.227 167.200,187.600 167.009,187.600 166.776 C 187.600 166.543,187.808 166.481,188.062 166.638 C 188.327 166.802,188.416 166.749,188.270 166.513 C 187.853 165.838,189.477 164.267,190.276 164.574 C 190.661 164.721,190.870 164.737,190.741 164.608 C 190.469 164.335,193.105 161.600,193.640 161.600 C 193.838 161.600,194.000 161.449,194.000 161.264 C 194.000 160.830,196.048 159.835,196.706 159.950 C 196.985 159.998,197.181 159.894,197.143 159.719 C 197.001 159.073,197.703 158.000,198.266 158.000 C 198.609 158.000,198.736 158.205,198.577 158.500 C 198.428 158.775,198.753 158.505,199.300 157.900 C 199.846 157.295,200.497 156.800,200.747 156.800 C 200.996 156.800,201.200 156.609,201.200 156.376 C 201.200 156.143,201.378 156.063,201.595 156.197 C 201.827 156.340,201.886 156.169,201.739 155.786 C 201.556 155.309,201.694 155.153,202.244 155.211 C 203.606 155.357,204.000 155.209,204.000 154.553 C 204.000 154.103,204.244 153.970,204.801 154.116 C 205.241 154.231,205.499 154.161,205.375 153.960 C 205.251 153.759,205.430 153.487,205.772 153.355 C 206.115 153.224,206.284 152.936,206.148 152.715 C 205.994 152.467,206.223 152.417,206.750 152.584 C 207.254 152.744,207.600 152.680,207.600 152.427 C 207.600 152.192,207.870 152.000,208.200 152.000 C 208.530 152.000,208.800 151.830,208.800 151.623 C 208.800 151.416,209.160 151.315,209.600 151.400 C 210.122 151.501,210.400 151.339,210.400 150.934 C 210.400 150.524,210.622 150.400,211.057 150.566 C 211.628 150.786,211.641 150.732,211.160 150.151 C 210.665 149.555,210.701 149.515,211.503 149.769 C 212.050 149.943,212.400 149.887,212.400 149.627 C 212.400 149.392,212.670 149.200,213.000 149.200 C 213.330 149.200,213.600 149.009,213.600 148.776 C 213.600 148.543,213.780 148.464,214.000 148.600 C 214.220 148.736,214.400 148.545,214.400 148.175 C 214.400 147.593,214.492 147.576,215.077 148.051 C 215.449 148.353,215.648 148.420,215.519 148.200 C 215.390 147.980,215.535 147.568,215.842 147.284 C 216.149 147.001,216.400 146.902,216.400 147.064 C 216.400 147.227,216.616 147.144,216.880 146.880 C 217.144 146.616,217.785 146.400,218.304 146.400 C 218.922 146.400,219.148 146.239,218.958 145.932 C 218.767 145.622,218.883 145.546,219.301 145.707 C 219.665 145.846,220.027 145.706,220.154 145.375 C 220.276 145.059,220.636 144.800,220.955 144.800 C 221.594 144.800,224.064 143.583,224.432 143.086 C 224.559 142.914,224.967 142.889,225.337 143.031 C 225.855 143.230,225.948 143.129,225.741 142.590 C 225.512 141.994,225.661 141.918,226.753 142.078 C 227.703 142.218,227.982 142.130,227.832 141.738 C 227.720 141.447,227.757 141.232,227.914 141.258 C 228.651 141.384,230.762 140.663,230.570 140.351 C 230.450 140.158,230.723 140.000,231.176 140.000 C 231.629 140.000,232.000 139.820,232.000 139.600 C 232.000 139.380,232.270 139.200,232.600 139.200 C 232.930 139.200,233.200 139.050,233.200 138.867 C 233.200 138.683,233.425 138.515,233.700 138.492 C 235.550 138.339,236.582 138.053,236.714 137.657 C 236.798 137.406,237.212 137.200,237.633 137.200 C 238.055 137.200,238.400 137.058,238.400 136.885 C 238.400 136.596,239.151 136.412,240.871 136.280 C 241.241 136.252,241.511 136.042,241.471 135.814 C 241.432 135.586,241.940 135.339,242.600 135.265 C 243.260 135.190,244.023 134.945,244.295 134.720 C 244.567 134.495,245.062 134.415,245.395 134.543 C 245.778 134.690,246.000 134.542,246.000 134.141 C 246.000 133.704,246.248 133.572,246.800 133.716 C 247.341 133.857,247.600 133.728,247.600 133.316 C 247.600 132.904,247.859 132.774,248.400 132.916 C 248.839 133.031,249.308 132.950,249.440 132.735 C 249.573 132.521,249.933 132.442,250.240 132.560 C 250.575 132.688,250.800 132.520,250.800 132.142 C 250.800 131.662,251.099 131.553,252.037 131.691 C 252.829 131.807,253.347 131.684,253.475 131.348 C 253.594 131.038,254.140 130.879,254.816 130.957 C 255.548 131.042,256.038 130.878,256.183 130.500 C 256.321 130.140,256.721 129.991,257.205 130.117 C 257.642 130.232,258.000 130.162,258.000 129.963 C 258.000 129.763,258.435 129.600,258.967 129.600 C 259.498 129.600,260.015 129.375,260.114 129.100 C 260.258 128.705,260.483 128.711,261.190 129.130 C 261.681 129.421,261.964 129.466,261.818 129.230 C 261.672 128.993,261.754 128.800,262.000 128.800 C 262.246 128.800,262.342 128.630,262.213 128.421 C 262.078 128.202,262.660 128.081,263.599 128.133 C 264.776 128.199,265.164 128.084,265.022 127.712 C 264.890 127.368,265.247 127.180,266.113 127.139 C 266.821 127.106,267.580 127.036,267.800 126.985 C 268.020 126.934,268.526 126.872,268.924 126.846 C 269.336 126.820,269.532 126.613,269.378 126.365 C 269.204 126.082,269.511 125.970,270.255 126.043 C 270.885 126.104,271.760 125.964,272.200 125.731 C 272.640 125.498,273.499 125.335,274.110 125.367 C 274.815 125.405,275.153 125.255,275.038 124.956 C 274.919 124.644,275.321 124.507,276.229 124.549 C 276.983 124.585,277.600 124.495,277.600 124.349 C 277.600 124.203,278.275 123.994,279.100 123.883 C 279.925 123.772,281.320 123.460,282.200 123.189 C 283.080 122.918,284.387 122.674,285.104 122.648 C 285.861 122.620,286.339 122.418,286.243 122.167 C 286.147 121.917,286.610 121.716,287.338 121.692 C 290.571 121.586,292.991 121.227,293.122 120.833 C 293.202 120.595,293.972 120.400,294.833 120.400 C 295.695 120.400,296.400 120.215,296.400 119.988 C 296.400 119.761,297.161 119.604,298.100 119.638 C 300.669 119.732,301.272 119.640,300.996 119.194 C 300.834 118.932,301.594 118.825,303.134 118.894 C 304.449 118.952,305.440 118.865,305.338 118.700 C 305.236 118.535,306.164 118.400,307.400 118.400 C 308.916 118.400,309.560 118.258,309.379 117.965 C 309.192 117.664,309.971 117.572,311.923 117.665 C 314.139 117.771,314.647 117.694,314.319 117.300 C 313.991 116.907,314.561 116.800,316.975 116.800 C 318.665 116.800,319.951 116.645,319.834 116.455 C 319.717 116.266,320.921 116.073,322.511 116.028 C 324.100 115.983,327.380 115.891,329.800 115.824 C 332.220 115.758,334.695 115.680,335.300 115.652 L 336.400 115.600 336.400 57.800 L 336.400 0.000 335.557 0.000 C 335.027 0.000,334.789 0.194,334.915 0.523 " stroke="none" fill="#667a8f" fill-rule="evenodd"></path><path id="path206" d="M322.912 582.695 C 323.964 582.777,325.584 582.776,326.512 582.692 C 327.440 582.608,326.580 582.541,324.600 582.542 C 322.620 582.543,321.860 582.612,322.912 582.695 " stroke="none" fill="#65808d" fill-rule="evenodd"></path><path id="path207" d="" stroke="none" fill="#62808e" fill-rule="evenodd"></path><path id="path208" d="" stroke="none" fill="#64808f" fill-rule="evenodd"></path><path id="path209" d="" stroke="none" fill="#647692" fill-rule="evenodd"></path><path id="path210" d="M330.700 582.289 C 331.415 582.378,332.585 582.378,333.300 582.289 C 334.015 582.201,333.430 582.128,332.000 582.128 C 330.570 582.128,329.985 582.201,330.700 582.289 " stroke="none" fill="#627693" fill-rule="evenodd"></path><path id="path211" d="M327.700 464.276 C 328.085 464.376,328.715 464.376,329.100 464.276 C 329.485 464.175,329.170 464.093,328.400 464.093 C 327.630 464.093,327.315 464.175,327.700 464.276 M312.105 582.287 C 312.714 582.379,313.614 582.377,314.105 582.282 C 314.597 582.187,314.100 582.111,313.000 582.114 C 311.900 582.117,311.497 582.195,312.105 582.287 " stroke="none" fill="#607993" fill-rule="evenodd"></path><path id="path212" d="" stroke="none" fill="#5e7994" fill-rule="evenodd"></path><path id="path213" d="" stroke="none" fill="#557799" fill-rule="evenodd"></path><path id="path214" d="" stroke="none" fill="#6a7895" fill-rule="evenodd"></path><path id="path215" d="" stroke="none" fill="#687897" fill-rule="evenodd"></path><path id="path216" d="" stroke="none" fill="#648092" fill-rule="evenodd"></path><path id="path217" d="" stroke="none" fill="#628093" fill-rule="evenodd"></path><path id="path218" d="" stroke="none" fill="#ff0000" fill-rule="evenodd"></path><path id="path219" d="" stroke="none" fill="#ff3300" fill-rule="evenodd"></path><path id="path220" d="" stroke="none" fill="#ff5500" fill-rule="evenodd"></path><path id="path221" d="" stroke="none" fill="#0000ff" fill-rule="evenodd"></path><path id="path222" d="M353.395 59.200 C 353.395 91.870,353.442 105.235,353.500 88.900 C 353.558 72.565,353.558 45.835,353.500 29.500 C 353.442 13.165,353.395 26.530,353.395 59.200 M365.700 462.700 C 371.805 462.762,381.795 462.762,387.900 462.700 C 394.005 462.638,389.010 462.587,376.800 462.587 C 364.590 462.587,359.595 462.638,365.700 462.700 M353.395 522.600 C 353.395 554.940,353.442 568.111,353.500 551.869 C 353.558 535.626,353.558 509.166,353.500 493.069 C 353.442 476.971,353.395 490.260,353.395 522.600 " stroke="none" fill="#ff6d00" fill-rule="evenodd"></path><path id="path223" d="M365.529 119.500 C 371.979 119.562,382.419 119.562,388.729 119.500 C 395.038 119.438,389.760 119.387,377.000 119.387 C 364.240 119.387,359.078 119.438,365.529 119.500 " stroke="none" fill="#ff701f" fill-rule="evenodd"></path><path id="path224" d="" stroke="none" fill="#ff7711" fill-rule="evenodd"></path><path id="path225" d="" stroke="none" fill="#ff790d" fill-rule="evenodd"></path><path id="path226" d="" stroke="none" fill="#ff7b29" fill-rule="evenodd"></path><path id="path227" d="" stroke="none" fill="#ff7828" fill-rule="evenodd"></path><path id="path228" d="" stroke="none" fill="#ff8022" fill-rule="evenodd"></path><path id="path229" d="" stroke="none" fill="#ff7726" fill-rule="evenodd"></path><path id="path230" d="M353.795 59.200 C 353.795 91.870,353.842 105.235,353.900 88.900 C 353.958 72.565,353.958 45.835,353.900 29.500 C 353.842 13.165,353.795 26.530,353.795 59.200 M365.700 463.100 C 371.805 463.162,381.795 463.162,387.900 463.100 C 394.005 463.038,389.010 462.987,376.800 462.987 C 364.590 462.987,359.595 463.038,365.700 463.100 M353.795 522.600 C 353.795 554.940,353.842 568.111,353.900 551.869 C 353.958 535.626,353.958 509.166,353.900 493.069 C 353.842 476.971,353.795 490.260,353.795 522.600 " stroke="none" fill="#ff852a" fill-rule="evenodd"></path><path id="path231" d="M365.529 119.100 C 371.979 119.162,382.419 119.162,388.729 119.100 C 395.038 119.038,389.760 118.987,377.000 118.987 C 364.240 118.987,359.078 119.038,365.529 119.100 " stroke="none" fill="#ff832d" fill-rule="evenodd"></path><path id="path232" d="M365.700 463.500 C 371.805 463.562,381.795 463.562,387.900 463.500 C 394.005 463.438,389.010 463.387,376.800 463.387 C 364.590 463.387,359.595 463.438,365.700 463.500 " stroke="none" fill="#ff842c" fill-rule="evenodd"></path><path id="path233" d="" stroke="none" fill="#ff802a" fill-rule="evenodd"></path><path id="path234" d="" stroke="none" fill="#ff822d" fill-rule="evenodd"></path><path id="path235" d="" stroke="none" fill="#ff832c" fill-rule="evenodd"></path><path id="path236" d="" stroke="none" fill="#ff8025" fill-rule="evenodd"></path><path id="path237" d="" stroke="none" fill="#ff862a" fill-rule="evenodd"></path><path id="path238" d="" stroke="none" fill="#ff822a" fill-rule="evenodd"></path><path id="path239" d="" stroke="none" fill="#ff7d2f" fill-rule="evenodd"></path><path id="path240" d="" stroke="none" fill="#ff822e" fill-rule="evenodd"></path><path id="path241" d="" stroke="none" fill="#ff872a" fill-rule="evenodd"></path><path id="path242" d="" stroke="none" fill="#ff802c" fill-rule="evenodd"></path><path id="path243" d="" stroke="none" fill="#ff842b" fill-rule="evenodd"></path><path id="path244" d="" stroke="none" fill="#ff822e" fill-rule="evenodd"></path><path id="path245" d="M365.700 463.500 C 371.805 463.562,381.795 463.562,387.900 463.500 C 394.005 463.438,389.010 463.387,376.800 463.387 C 364.590 463.387,359.595 463.438,365.700 463.500 " stroke="none" fill="#ff842c" fill-rule="evenodd"></path><path id="path246" d="" stroke="none" fill="#ff812b" fill-rule="evenodd"></path><path id="path247" d="M354.195 59.200 C 354.195 91.870,354.242 105.235,354.300 88.900 C 354.358 72.565,354.358 45.835,354.300 29.500 C 354.242 13.165,354.195 26.530,354.195 59.200 M354.743 463.703 C 354.910 463.870,364.936 463.960,377.023 463.903 L 399.000 463.800 376.720 463.600 C 364.466 463.490,354.576 463.537,354.743 463.703 M354.195 522.600 C 354.195 554.940,354.242 568.111,354.300 551.869 C 354.358 535.626,354.358 509.166,354.300 493.069 C 354.242 476.971,354.195 490.260,354.195 522.600 M365.928 582.300 C 372.159 582.362,382.239 582.362,388.328 582.300 C 394.418 582.238,389.320 582.187,377.000 582.187 C 364.680 582.187,359.698 582.238,365.928 582.300 " stroke="none" fill="#ff852d" fill-rule="evenodd"></path><path id="path248" d="" stroke="none" fill="#ff862b" fill-rule="evenodd"></path><path id="path249" d="M354.195 59.200 C 354.195 91.870,354.242 105.235,354.300 88.900 C 354.358 72.565,354.358 45.835,354.300 29.500 C 354.242 13.165,354.195 26.530,354.195 59.200 M354.743 463.703 C 354.910 463.870,364.936 463.960,377.023 463.903 L 399.000 463.800 376.720 463.600 C 364.466 463.490,354.576 463.537,354.743 463.703 M354.195 522.600 C 354.195 554.940,354.242 568.111,354.300 551.869 C 354.358 535.626,354.358 509.166,354.300 493.069 C 354.242 476.971,354.195 490.260,354.195 522.600 M365.928 582.300 C 372.159 582.362,382.239 582.362,388.328 582.300 C 394.418 582.238,389.320 582.187,377.000 582.187 C 364.680 582.187,359.698 582.238,365.928 582.300 " stroke="none" fill="#ff852d" fill-rule="evenodd"></path><path id="path250" d="M354.499 59.300 L 354.600 118.600 376.700 118.703 L 398.800 118.807 398.800 59.403 L 398.800 0.000 376.599 0.000 L 354.397 0.000 354.499 59.300 M399.395 59.200 C 399.395 91.870,399.442 105.235,399.500 88.900 C 399.558 72.565,399.558 45.835,399.500 29.500 C 399.442 13.165,399.395 26.530,399.395 59.200 M353.900 463.599 C 354.295 464.042,354.400 476.470,354.400 522.880 L 354.400 581.600 376.600 581.600 L 398.800 581.600 398.898 522.700 L 398.996 463.800 399.201 522.600 L 399.405 581.400 399.403 522.687 L 399.400 463.974 377.049 463.993 C 360.078 464.008,354.541 463.896,354.049 463.526 C 353.504 463.116,353.480 463.128,353.900 463.599 " stroke="none" fill="#ff8731" fill-rule="evenodd"></path><path id="path251" d="M399.795 59.200 C 399.795 91.870,399.842 105.235,399.900 88.900 C 399.958 72.565,399.958 45.835,399.900 29.500 C 399.842 13.165,399.795 26.530,399.795 59.200 M399.099 463.639 C 399.491 464.142,399.619 476.810,399.700 522.839 L 399.803 581.400 399.901 522.749 C 399.995 467.299,399.962 464.068,399.300 463.549 C 398.680 463.063,398.657 463.073,399.099 463.639 M376.800 581.600 L 354.600 581.810 376.900 581.905 C 391.563 581.967,399.200 581.863,399.200 581.600 C 399.200 581.380,399.155 581.243,399.100 581.295 C 399.045 581.347,389.010 581.484,376.800 581.600 " stroke="none" fill="#ff8a2d" fill-rule="evenodd"></path><path id="path252" d="M398.995 59.200 C 398.995 91.870,399.042 105.235,399.100 88.900 C 399.158 72.565,399.158 45.835,399.100 29.500 C 399.042 13.165,398.995 26.530,398.995 59.200 M398.995 522.600 C 398.995 554.940,399.042 568.111,399.100 551.869 C 399.158 535.626,399.158 509.166,399.100 493.069 C 399.042 476.971,398.995 490.260,398.995 522.600 " stroke="none" fill="#ff872c" fill-rule="evenodd"></path><path id="path253" d="" stroke="none" fill="#ff892c" fill-rule="evenodd"></path><path id="path254" d="M399.795 59.200 C 399.795 91.870,399.842 105.235,399.900 88.900 C 399.958 72.565,399.958 45.835,399.900 29.500 C 399.842 13.165,399.795 26.530,399.795 59.200 M399.099 463.639 C 399.491 464.142,399.619 476.810,399.700 522.839 L 399.803 581.400 399.901 522.749 C 399.995 467.299,399.962 464.068,399.300 463.549 C 398.680 463.063,398.657 463.073,399.099 463.639 M376.800 581.600 L 354.600 581.810 376.900 581.905 C 391.563 581.967,399.200 581.863,399.200 581.600 C 399.200 581.380,399.155 581.243,399.100 581.295 C 399.045 581.347,389.010 581.484,376.800 581.600 " stroke="none" fill="#ff8a2d" fill-rule="evenodd"></path><path id="path255" d="" stroke="none" fill="#ff9900" fill-rule="evenodd"></path></g></svg>